<svg id="Layer_1" enable-background="new 0 0 512 512" height="512" viewBox="0 0 512 512" width="512" xmlns="http://www.w3.org/2000/svg" xmlns:xlink="http://www.w3.org/1999/xlink"><radialGradient id="XMLID_3_" cx="257" cy="182" gradientUnits="userSpaceOnUse" r="251"><stop offset=".7366" stop-color="#ffc970"/><stop offset="1" stop-color="#ffb233"/></radialGradient><linearGradient id="lg1"><stop offset=".4835" stop-color="#ebeae0"/><stop offset="1" stop-color="#d7d5c1"/></linearGradient><linearGradient id="XMLID_4_" gradientUnits="userSpaceOnUse" x1="256" x2="256" xlink:href="#lg1" y1="318.5" y2="497.101"/><linearGradient id="XMLID_5_" gradientUnits="userSpaceOnUse" x1="1.084" x2="75.98" xlink:href="#lg1" y1="54.366" y2="129.263"/><linearGradient id="XMLID_6_" gradientTransform="matrix(-1 0 0 1 1812 0)" gradientUnits="userSpaceOnUse" x1="1301.084" x2="1375.98" xlink:href="#lg1" y1="54.366" y2="129.263"/><g id="XMLID_1_"><g id="XMLID_4904_"><path id="XMLID_2970_" d="m507 5-16.7 10.1c-64.7 39.2-138.9 59.9-214.5 59.9h-39.6c-75.6 0-149.8-20.7-214.5-59.9l-16.7-10.1c0 52.7 15.2 104.2 43.8 148.4l4.4 6.8c-31.1 37.3-48.2 84.3-48.2 133 0 86.5 53.7 163.9 134.7 194.3 34.6 12.9 71.2 19.6 108.1 19.6h16.3c36.9 0 73.6-6.6 108.1-19.6 81-30.3 134.7-107.7 134.7-194.3 0-48.6-17.1-95.7-48.2-132.9l4.4-6.8c28.7-44.3 43.9-95.8 43.9-148.5z" fill="url(#XMLID_3_)"/><path id="XMLID_2968_" d="m256 240c-12.4 0-23.9 6.5-30.2 17.2l-8.4 14.1c-6.5 11-18.4 17.7-31.1 17.7-20 0-36.2 16.2-36.2 36.2v165.8c31.5 10.5 64.6 15.9 97.8 15.9h16.3c33.3 0 66.3-5.4 97.8-15.9v-165.8c0-20-16.2-36.2-36.2-36.2-12.8 0-24.6-6.7-31.1-17.7l-8.4-14.1c-6.4-10.7-17.9-17.2-30.3-17.2z" fill="url(#XMLID_4_)"/><g fill="#e36414"><path id="XMLID_2967_" d="m9.2 334.5c2.1 10.6 5.1 20.9 8.8 30.9 25.8-10.5 43.6-24.2 40.8-31.9-2.8-7.6-24.1-6.9-49.6 1z"/><path id="XMLID_2966_" d="m58.7 280.6c3.1-8.4-18.5-24-48.2-34.8-2.5 10.7-4.2 21.6-5 32.7 27.2 8.8 50.4 9.9 53.2 2.1z"/><path id="XMLID_2965_" d="m501.5 245.7c-29.7 10.8-51.3 26.4-48.2 34.8 2.9 7.8 26.1 6.7 53.2-2.2-.8-11-2.5-21.9-5-32.6z"/><path id="XMLID_2964_" d="m453.3 333.4c-2.8 7.7 15 21.4 40.8 31.9 3.7-10 6.7-20.3 8.8-30.9-25.6-7.8-46.9-8.5-49.6-1z"/><path id="XMLID_2962_" d="m172.7 80.6c10.8 29.7 26.4 51.2 34.8 48.2 8-2.9 6.7-27.1-2.8-54.9-12-.9-23.9-2.3-35.7-4.3 1.2 3.5 2.4 7.2 3.7 11z"/><path id="XMLID_2961_" d="m275.8 75h-39.6c-1.7 0-3.2 0-5.2 0 0 38.7 11.2 70 25 70s25-31.3 25-70c-1.7 0-3.5 0-5.2 0z"/><path id="XMLID_2960_" d="m307.2 73.8c-9.4 27.9-10.8 52-2.8 54.9 8.4 3.1 24-18.5 34.8-48.2 1.4-3.7 2.6-7.4 3.7-11-11.8 2-23.7 3.4-35.7 4.3z"/></g><path id="XMLID_2959_" d="m53.2 160.2c1.1-1.3 2.2-2.7 3.4-4 15.9-18.1 34.2-33.5 54.3-45.8-42.2-27.2-78.3-63.1-105.9-105.4 0 52.7 15.2 104.2 43.8 148.4z" fill="url(#XMLID_5_)"/><path id="XMLID_1589_" d="m458.8 160.2c-1.1-1.3-2.2-2.7-3.4-4-15.9-18.1-34.2-33.5-54.3-45.8 42.2-27.2 78.3-63.1 105.9-105.4 0 52.7-15.2 104.2-43.8 148.4z" fill="url(#XMLID_6_)"/><g id="XMLID_2883_"><path id="XMLID_2884_" d="m169.6 185h44.7v10h-44.7z" fill="#b24e10" transform="matrix(.894 .447 -.447 .894 105.241 -65.806)"/></g><g id="XMLID_2881_"><path id="XMLID_2882_" d="m315 167.6h10v44.7h-10z" fill="#b24e10" transform="matrix(.447 .894 -.894 .447 346.817 -181.188)"/></g><path id="XMLID_2880_" d="m217 299-76.6 49.2c-5.9-2.7-12.5-4.2-19.4-4.2-20.1 0-37.2 12.6-43.9 30.3-7.3-4.6-15.9-7.3-25.1-7.3-26 0-47 21-47 47 0 8.4 2.2 16.2 6 23-3.8 6.8-6 14.6-6 23 0 26 21 47 47 47 8.4 0 16.2-2.2 23-6 6.8 3.8 14.6 6 23 6 26 0 47-21 47-47 0-9.2-2.7-17.8-7.3-25.1 17.7-6.7 30.3-23.9 30.3-43.9 0-8.8-2.4-17-6.6-24z" fill="#d7d5c1"/><g id="XMLID_2878_"><path id="XMLID_2879_" d="m52 466c-18.8 0-36.1-10.2-45.4-26.5l8.7-4.9c7.5 13.2 21.5 21.4 36.7 21.4z" fill="#ebeae0"/></g><g id="XMLID_2876_"><path id="XMLID_2877_" d="m121 443v-10c5.2 0 10.2-.9 15-2.7l3.6 9.3c-6 2.3-12.2 3.4-18.6 3.4z" fill="#ebeae0"/></g><g id="XMLID_2874_"><path id="XMLID_2875_" d="m79 391h-10c0-6 1.1-12.6 3.4-18.5l9.3 3.6c-1.8 4.7-2.7 9.9-2.7 14.9z" fill="#ebeae0"/></g><path id="XMLID_2873_" d="m295 299 76.6 49.2c5.9-2.7 12.5-4.2 19.4-4.2 20.1 0 37.2 12.6 43.9 30.3 7.3-4.6 15.9-7.3 25.1-7.3 26 0 47 21 47 47 0 8.4-2.2 16.2-6 23 3.8 6.8 6 14.6 6 23 0 26-21 47-47 47-8.4 0-16.2-2.2-23-6-6.8 3.8-14.6 6-23 6-26 0-47-21-47-47 0-9.2 2.7-17.8 7.3-25.1-17.7-6.7-30.3-23.9-30.3-43.9 0-8.8 2.4-17 6.6-24z" fill="#d7d5c1"/><g id="XMLID_2871_"><path id="XMLID_2872_" d="m496.6 439.4c-1.9-3.3-4.2-6.4-6.9-9.1l7.1-7.1c3.4 3.4 6.3 7.2 8.6 11.3z" fill="#ebeae0"/></g><g id="XMLID_2869_"><path id="XMLID_2870_" d="m434.5 505.4c-4.1-2.3-7.9-5.2-11.3-8.6l7.1-7.1c2.7 2.7 5.8 5.1 9.1 6.9z" fill="#ebeae0"/></g><g id="XMLID_2866_"><path id="XMLID_2867_" d="m391 443c-6.4 0-12.6-1.1-18.5-3.4l3.6-9.3c4.8 1.8 9.8 2.7 15 2.7v10z" fill="#ebeae0"/></g><g id="XMLID_2864_"><path id="XMLID_2865_" d="m443 391h-10c0-5-.9-10.2-2.7-15l9.3-3.6c2.3 6 3.4 12.6 3.4 18.6z" fill="#ebeae0"/></g><g id="XMLID_2844_"><g id="XMLID_2853_"><path id="XMLID_2863_" d="m361 174.8h-10c0-8.3-6.7-15-15-15v-10c13.8 0 25 11.3 25 25z" fill="#b24e10"/></g><g id="XMLID_2851_"><path id="XMLID_2852_" d="m381 174.8h-10c0-13.8 11.2-25 25-25v10c-8.3 0-15 6.8-15 15z" fill="#b24e10"/></g><g id="XMLID_2847_"><path id="XMLID_2850_" d="m396 139.8c-13.8 0-25-11.2-25-25h10c0 8.3 6.7 15 15 15z" fill="#b24e10"/></g><g id="XMLID_2845_"><path id="XMLID_2846_" d="m336 139.8v-10c8.3 0 15-6.7 15-15h10c0 13.8-11.2 25-25 25z" fill="#b24e10"/></g></g><g id="XMLID_1644_"><path id="XMLID_1665_" d="m251 260h10v60h-10z" fill="#b24e10"/></g><g id="XMLID_1642_"><path id="XMLID_1643_" d="m103 303.4h10v41.2h-10z" fill="#b24e10" transform="matrix(.243 .97 -.97 .243 396.124 140.63)"/></g><g id="XMLID_1640_"><path id="XMLID_1641_" d="m87.4 289h41.2v10h-41.2z" fill="#b24e10" transform="matrix(.97 .243 -.243 .97 74.53 -17.416)"/></g><g id="XMLID_1638_"><path id="XMLID_1639_" d="m399 273.4h10v41.2h-10z" fill="#b24e10" transform="matrix(.243 .97 -.97 .243 591.216 -169.252)"/></g><g id="XMLID_1636_"><path id="XMLID_1637_" d="m383.4 319h41.2v10h-41.2z" fill="#b24e10" transform="matrix(.97 .243 -.243 .97 90.644 -88.311)"/></g><path id="XMLID_1635_" d="m261.9 240h-11.7c-7.8 0-14.1 6.3-14.1 14.1 0 3.8 1.5 7.3 4.1 10l15.8 15.9 15.9-15.9c2.7-2.7 4.1-6.2 4.1-10 0-7.8-6.3-14.1-14.1-14.1z" fill="#e36414"/><g id="XMLID_1633_"><path id="XMLID_1634_" d="m321 374-65-47.8-65 47.8-6-8 68-50c1.8-1.3 4.2-1.3 5.9 0l68 50z" fill="#b24e10"/></g><g id="XMLID_1596_"><path id="XMLID_1625_" d="m320 265c-13.8 0-25-11.2-25-25v-20h10v20c0 8.3 6.7 15 15 15s15-6.7 15-15v-20h10v20c0 13.8-11.2 25-25 25z" fill="#b24e10"/></g><g id="XMLID_1594_"><path id="XMLID_1595_" d="m192 265c-13.8 0-25-11.2-25-25v-20h10v20c0 8.3 6.7 15 15 15s15-6.7 15-15v-20h10v20c0 13.8-11.2 25-25 25z" fill="#b24e10"/></g></g></g></svg>