<svg height="512" viewBox="0 0 512 512" width="512" xmlns="http://www.w3.org/2000/svg" xmlns:xlink="http://www.w3.org/1999/xlink" isolation="isolate"><radialGradient id="_rgradient_91" cx=".5" cy=".5" gradientTransform="matrix(1280 5.89 185.031 1707.08 -441.515 -701.43)" gradientUnits="userSpaceOnUse" r=".5"><stop offset=".01304347826" stop-color="#974f2d"/><stop offset=".97391304348" stop-color="#532009"/></radialGradient><radialGradient id="_rgradient_92" cx=".5" cy=".5" gradientTransform="matrix(748 0 0 475.841 -117 -34.675)" gradientUnits="userSpaceOnUse" r=".5"><stop offset=".02173913043" stop-color="#b91a08" stop-opacity=".76"/><stop offset="1" stop-color="#532009" stop-opacity="0"/></radialGradient><radialGradient id="_rgradient_93" cx=".5" cy=".5" gradientTransform="matrix(1262 -17.559 6 943.559 -364 -329.22)" gradientUnits="userSpaceOnUse" r=".5"><stop offset=".01304347826" stop-color="#ffcebb"/><stop offset=".89705293782" stop-color="#bb7c66"/></radialGradient><linearGradient id="lg1"><stop offset=".02173913043" stop-color="#53250f"/><stop offset=".97391304348" stop-color="#37190b"/></linearGradient><linearGradient id="_lgradient_36" gradientTransform="matrix(52.776 0 0 51.336 148.816 232.919)" gradientUnits="userSpaceOnUse" x1=".455" x2=".501" xlink:href="#lg1" y1=".069" y2="1.025"/><linearGradient id="_lgradient_37" gradientTransform="matrix(52.776 0 0 51.336 310.488 232.919)" gradientUnits="userSpaceOnUse" x1=".455" x2=".501" xlink:href="#lg1" y1=".069" y2="1.025"/><radialGradient id="_rgradient_94" cx=".5" cy=".5" fx=".517" fy=".494" gradientTransform="matrix(-414.5 -18 -22 -282.403 499.75 467.451)" gradientUnits="userSpaceOnUse" r=".5"><stop offset=".01739130435" stop-color="#572a15"/><stop offset=".56956521739" stop-color="#37190b"/></radialGradient><radialGradient id="_rgradient_95" cx=".5" cy=".5" fx=".517" fy=".494" gradientTransform="matrix(553.336 12.541 29.369 196.754 -69.393 325.23)" gradientUnits="userSpaceOnUse" r=".5"><stop offset=".03043478261" stop-color="#53250f"/><stop offset=".56956521739" stop-color="#37190b"/></radialGradient><path d="m408.944 138.234c14.22 17.175 25.455 36.136 31.805 55.096l35.409 105.719c31.312 93.49-14.572 183.192-102.4 200.191-64.992 12.58-170.524 12.58-235.516 0-87.828-16.999-133.712-106.701-102.4-200.191l35.409-105.719c6.338-18.926 17.544-37.852 31.728-55.002-5.97-1.213-11.969-2.9-17.871-5.068l-9.832-3.613c-39.793-14.624-53.292-55.322-30.124-90.827l3.905-5.985c23.167-35.505 65.855-39.542 95.267-9.008l7.267 7.544c13.876 14.405 23.683 31.674 28.295 47.91 7.03-2.98 14.08-5.329 21.05-6.969 30.391-7.151 79.737-7.151 110.128 0 6.813 1.603 13.703 3.884 20.576 6.773 4.635-16.179 14.419-33.367 28.239-47.714l7.267-7.544c29.412-30.534 72.1-26.497 95.267 9.008l3.905 5.985c23.167 35.505 9.669 76.203-30.124 90.827l-9.832 3.613c-5.753 2.114-11.597 3.77-17.418 4.974z" fill="url(#_rgradient_91)"/><path d="m408.944 138.234c14.22 17.175 25.455 36.136 31.805 55.096l35.409 105.719c15.656 46.745-.158 180.117-220.158 180.117s-235.814-133.372-220.158-180.117l35.409-105.719c6.338-18.926 17.544-37.852 31.728-55.002-5.97-1.213-11.969-2.9-17.871-5.068l-9.832-3.613c-39.793-14.624-53.292-55.322-30.124-90.827l3.905-5.985c23.167-35.505 65.855-39.542 95.267-9.008l7.267 7.544c13.876 14.405 23.683 31.674 28.295 47.91 7.03-2.98 14.08-5.329 21.05-6.969 30.391-7.151 79.737-7.151 110.128 0 6.813 1.603 13.703 3.884 20.576 6.773 4.635-16.179 14.419-33.367 28.239-47.714l7.267-7.544c29.412-30.534 72.1-26.497 95.267 9.008l3.905 5.985c23.167 35.505 9.669 76.203-30.124 90.827l-9.832 3.613c-5.753 2.114-11.597 3.77-17.418 4.974z" fill="url(#_rgradient_92)"/><path d="m230.156 333.844c13.712.377 35.976.377 49.688 0 45.762-1.261 98.929 26.315 118.652 61.542 29.256 52.253-7.593 101.692-82.237 110.334-33.81 3.914-88.708 3.914-122.518 0-74.644-8.642-111.493-58.081-82.237-110.334 19.723-35.227 72.89-62.803 118.652-61.542zm-78.389-239.4c2.854-13.111-4.228-32.327-18.119-46.748l-4.351-4.517c-17.611-18.282-43.17-15.865-57.041 5.393l-2.338 3.583c-13.871 21.259-5.789 45.627 18.037 54.382l5.887 2.164c11.68 4.292 23.997 5.431 34.248 3.778 7.556-6.621 15.502-12.693 23.677-18.035zm207.936 0c-2.854-13.111 4.228-32.327 18.119-46.748l4.351-4.517c17.61-18.282 43.169-15.865 57.041 5.393l2.338 3.583c13.871 21.259 5.789 45.627-18.037 54.382l-5.887 2.164c-11.681 4.292-23.998 5.431-34.249 3.778-7.555-6.621-15.502-12.693-23.676-18.035z" fill="url(#_rgradient_93)" fill-rule="evenodd"/><path d="m155.374 232.919c-4.084 5.445-6.558 12.551-6.558 20.32 0 17.119 12.007 31.016 26.796 31.016 12.519 0 23.044-9.958 25.981-23.398z" fill="url(#_lgradient_36)"/><path d="m356.706 232.919c4.085 5.445 6.558 12.551 6.558 20.32 0 17.119-12.006 31.016-26.796 31.016-12.518 0-23.043-9.958-25.98-23.398z" fill="url(#_lgradient_37)"/><path d="m277.305 364.886-9.108 1.221c-6.732.902-17.662.902-24.394 0l-9.108-1.221c-11.423-1.531-25.441-10.839-31.283-20.773l-5.1-8.671c-10.433-17.74-2.295-33.974 18.162-36.229l12.097-1.333c15.139-1.669 39.719-1.669 54.858 0l12.097 1.333c20.457 2.255 28.595 18.489 18.162 36.229l-5.1 8.671c-5.842 9.934-19.86 19.242-31.283 20.773z" fill="url(#_rgradient_94)"/><path d="m256.002 394.703c-.246-.003-.491-.003-.737-.003v.004c-7.127.044-14.237.483-21.32 1.306-6.68.79-13.31 1.96-19.85 3.53-5.73 1.37-11.38 3.08-16.91 5.11-4.77 1.75-9.45 3.77-13.99 6.05-3.82 1.91-7.53 4.03-11.11 6.35-2.88 1.86-5.64 3.88-8.29 6.05-1.99 1.62-3.88 3.37-5.63 5.25-.68.73-1.33 1.49-1.93 2.28-.65.84-1.21 1.75-1.66 2.71-.96 2.01-1.08 4.33-.35 6.43.74 2.11 2.27 3.84 4.27 4.83s4.31 1.15 6.42.45c2.12-.7 3.88-2.2 4.9-4.19.24-.31.49-.61.76-.9 1.24-1.32 2.56-2.55 3.97-3.69 2.16-1.78 4.42-3.43 6.77-4.95 3.06-1.98 6.23-3.79 9.49-5.42 3.98-2 8.06-3.76 12.23-5.29 4.92-1.8 9.93-3.32 15.02-4.54 5.89-1.41 11.86-2.47 17.87-3.17 6.661-.782 13.368-1.182 20.077-1.197 6.708.015 13.414.415 20.073 1.197 6.01.7 11.98 1.76 17.87 3.17 5.09 1.22 10.1 2.74 15.02 4.54 4.17 1.53 8.25 3.29 12.23 5.29 3.26 1.63 6.43 3.44 9.49 5.42 2.35 1.52 4.61 3.17 6.77 4.95 1.41 1.14 2.73 2.37 3.97 3.69.27.29.52.59.76.9 1.02 1.99 2.78 3.49 4.9 4.19 2.11.7 4.42.54 6.42-.45s3.53-2.72 4.27-4.83c.73-2.1.61-4.42-.35-6.43-.45-.96-1.01-1.87-1.66-2.71-.6-.79-1.25-1.55-1.93-2.28-1.75-1.88-3.64-3.63-5.63-5.25-2.65-2.17-5.41-4.19-8.29-6.05-3.58-2.32-7.29-4.44-11.11-6.35-4.54-2.28-9.22-4.3-13.99-6.05-5.53-2.03-11.18-3.74-16.91-5.11-6.54-1.57-13.17-2.74-19.85-3.53-7.083-.823-14.193-1.262-21.32-1.306v-.004c-.244 0-.489 0-.733.003z" fill="url(#_rgradient_95)"/></svg>