<svg id="Layer_1" height="62" viewBox="0 0 32 32" width="512" xmlns="http://www.w3.org/2000/svg" data-name="Layer 1"><path d="m21.707 12.293a1 1 0 0 0 -1.414 0l-2.293 2.293-2.293-2.293a1 1 0 0 0 -1.414 1.414l2.293 2.293-2.293 2.293a1 1 0 0 0 1.414 1.414l2.293-2.293 2.293 2.293a1 1 0 0 0 1.414-1.414l-2.293-2.293 2.293-2.293a1 1 0 0 0 0-1.414z"/><path d="m26 8h-16a1 1 0 0 0 -.759.35l-6 7a1 1 0 0 0 0 1.3l6 7a1 1 0 0 0 .759.35h16a3 3 0 0 0 3-3v-10a3 3 0 0 0 -3-3zm1 13a1 1 0 0 1 -1 1h-15.54l-5.143-6 5.143-6h15.54a1 1 0 0 1 1 1z"/></svg>