<svg height="512" viewBox="0 0 64 64" width="512" xmlns="http://www.w3.org/2000/svg" xmlns:xlink="http://www.w3.org/1999/xlink"><linearGradient id="linear-gradient" gradientUnits="userSpaceOnUse" x1="32" x2="32" y1="1.304" y2="63.304"><stop offset="0" stop-color="#ffe100"/><stop offset="1" stop-color="#f98900"/></linearGradient><linearGradient id="linear-gradient-2" gradientUnits="userSpaceOnUse" x1="32" x2="32" y1="52.45" y2="43.016"><stop offset="0" stop-color="#911625"/><stop offset=".587" stop-color="#630f19"/><stop offset="1" stop-color="#400a10"/></linearGradient><linearGradient id="linear-gradient-3" gradientUnits="userSpaceOnUse" x1="13.996" x2="50.004" y1="42" y2="42"><stop offset="0" stop-color="#b8b4b2"/><stop offset=".333" stop-color="#e6e1de"/><stop offset=".5" stop-color="#fffaf6"/><stop offset=".638" stop-color="#f9f5f1"/><stop offset=".825" stop-color="#e8e5e3"/><stop offset="1" stop-color="#d1d1d1"/></linearGradient><linearGradient id="linear-gradient-4" gradientUnits="userSpaceOnUse" x1="32" x2="32" y1="39.712" y2="46.21"><stop offset="0" stop-color="#ababab" stop-opacity=".5"/><stop offset=".541" stop-color="#c1c1c1" stop-opacity=".216"/><stop offset="1" stop-color="#d1d1d1" stop-opacity="0"/></linearGradient><linearGradient id="linear-gradient-5" gradientUnits="userSpaceOnUse" x1="43" x2="43" y1="28.963" y2="20.906"><stop offset="0" stop-color="#803f02"/><stop offset=".174" stop-color="#6d3602"/><stop offset=".515" stop-color="#4d2601"/><stop offset=".802" stop-color="#3a1c01"/><stop offset="1" stop-color="#331901"/></linearGradient><linearGradient id="linear-gradient-6" x1="21" x2="21" xlink:href="#linear-gradient-5" y1="28.963" y2="20.906"/><linearGradient id="linear-gradient-7" gradientUnits="userSpaceOnUse" x1="55.982" x2="56.009" y1="1.431" y2="20.136"><stop offset="0" stop-color="#bfe7ff"/><stop offset=".106" stop-color="#b7e5ff"/><stop offset=".266" stop-color="#a2deff"/><stop offset=".462" stop-color="#80d3ff"/><stop offset=".685" stop-color="#50c4ff"/><stop offset=".928" stop-color="#13b0ff"/><stop offset="1" stop-color="#0af"/></linearGradient><linearGradient id="linear-gradient-8" gradientUnits="userSpaceOnUse" x1="55.989" x2="56.005" y1="4.259" y2="15.482"><stop offset="0" stop-color="#fff"/><stop offset=".129" stop-color="#f4fbff"/><stop offset=".358" stop-color="#d6f1ff"/><stop offset=".659" stop-color="#a5e0ff"/><stop offset="1" stop-color="#66cbff"/></linearGradient><linearGradient id="linear-gradient-9" gradientUnits="userSpaceOnUse" x1="56" x2="56" y1="19.882" y2="14.431"><stop offset=".005" stop-color="#87e3ff"/><stop offset=".134" stop-color="#7bdbff"/><stop offset=".446" stop-color="#65caff"/><stop offset=".742" stop-color="#57c0ff"/><stop offset="1" stop-color="#52bdff"/></linearGradient><g id="_08-Downcast_Face_with_Sweat" data-name="08-Downcast Face with Sweat"><path d="m32 63c-27.7 0-31.038-24-31-30v-2c-.038-6 3.3-30 31-30 27.7 0 31.038 24 31 30v2c.038 6-3.3 30-31 30z" fill="url(#linear-gradient)"/><path d="m50 38.99a.94.94 0 0 0 -1.19-.96 72.587 72.587 0 0 1 -16.81 2.07 72.587 72.587 0 0 1 -16.81-2.07.94.94 0 0 0 -1.19.96c.018.187.056.363.083.545a.85.85 0 0 0 -.083.455 10.787 10.787 0 0 0 .49 2.34 9.632 9.632 0 0 0 .43 1.17 14.068 14.068 0 0 0 5.09 5.88 20.6 20.6 0 0 0 11.99 3.62 20.6 20.6 0 0 0 11.99-3.62 14.068 14.068 0 0 0 5.09-5.88 9.632 9.632 0 0 0 .43-1.17 10.787 10.787 0 0 0 .49-2.34.85.85 0 0 0 -.083-.455c.027-.182.065-.358.083-.545z" fill="#f9bf06"/><path d="m50 37.99a.94.94 0 0 0 -1.19-.96 72.587 72.587 0 0 1 -16.81 2.07 72.587 72.587 0 0 1 -16.81-2.07.94.94 0 0 0 -1.19.96c.018.187.056.363.083.545a.85.85 0 0 0 -.083.455 10.787 10.787 0 0 0 .49 2.34 9.632 9.632 0 0 0 .43 1.17 14.068 14.068 0 0 0 5.09 5.88 20.6 20.6 0 0 0 11.99 3.62 20.6 20.6 0 0 0 11.99-3.62 14.068 14.068 0 0 0 5.09-5.88 9.632 9.632 0 0 0 .43-1.17 10.787 10.787 0 0 0 .49-2.34.85.85 0 0 0 -.083-.455c.027-.182.065-.358.083-.545z" fill="#ed8d06"/><path d="m49.51 41.33a9.632 9.632 0 0 1 -.43 1.17 14.068 14.068 0 0 1 -5.09 5.88 20.6 20.6 0 0 1 -11.99 3.62 20.6 20.6 0 0 1 -11.99-3.62 14.068 14.068 0 0 1 -5.09-5.88 9.632 9.632 0 0 1 -.43-1.17 32.724 32.724 0 0 0 17.51 4.67 32.724 32.724 0 0 0 17.51-4.67z" fill="url(#linear-gradient-2)"/><path d="m48.81 38.03a.94.94 0 0 1 1.19.96 10.787 10.787 0 0 1 -.49 2.34 32.724 32.724 0 0 1 -17.51 4.67 32.724 32.724 0 0 1 -17.51-4.67 10.787 10.787 0 0 1 -.49-2.34.94.94 0 0 1 1.19-.96 72.587 72.587 0 0 0 16.81 2.07 72.587 72.587 0 0 0 16.81-2.07z" fill="url(#linear-gradient-3)"/><path d="m48.81 38.03a.94.94 0 0 1 1.19.96 10.787 10.787 0 0 1 -.49 2.34 32.724 32.724 0 0 1 -17.51 4.67 32.724 32.724 0 0 1 -17.51-4.67 10.787 10.787 0 0 1 -.49-2.34.94.94 0 0 1 1.19-.96 72.587 72.587 0 0 0 16.81 2.07 72.587 72.587 0 0 0 16.81-2.07z" fill="url(#linear-gradient-4)"/><path d="m48 26.5c0-3-2-6-5-6s-5 3-5 6c0 .181.014.332.021.5-.013.167-.021.335-.021.5 0 3 1 4 1 4s1-6 4-6 4 6 4 6 1-1 1-4c0-.167-.008-.335-.021-.5.007-.168.021-.319.021-.5z" fill="#ed8d06"/><path d="m21 20.5c-3 0-5 3-5 6 0 .181.014.332.021.5-.013.167-.021.335-.021.5 0 3 1 4 1 4s1-6 4-6 4 6 4 6 1-1 1-4c0-.167-.008-.335-.021-.5.007-.166.021-.317.021-.5 0-3-2-6-5-6z" fill="#ed8d06"/><path d="m39 30.5s-1-1-1-4 2-6 5-6 5 3 5 6-1 4-1 4-1-6-4-6-4 6-4 6z" fill="url(#linear-gradient-5)"/><path d="m17 30.5s-1-1-1-4 2-6 5-6 5 3 5 6-1 4-1 4-1-6-4-6-4 6-4 6z" fill="url(#linear-gradient-6)"/><path d="m63 14a7 7 0 0 1 -14 0c0-3.866 7-13 7-13s7 9.134 7 13z" fill="url(#linear-gradient-7)"/><path d="m60.824 11.11c.955 2.538-2.16 4.89-4.824 4.89s-5.779-2.352-4.824-4.89a58.953 58.953 0 0 1 3.131-6.138 1.96 1.96 0 0 1 3.386 0 58.953 58.953 0 0 1 3.131 6.138z" fill="url(#linear-gradient-8)"/><path d="m59.888 16.99a8.065 8.065 0 0 1 -7.776 0 3.557 3.557 0 0 1 -2.112-2.99v1.062a3.588 3.588 0 0 0 .341 1.558 5.9 5.9 0 0 0 5.659 3.38 5.9 5.9 0 0 0 5.659-3.38 3.588 3.588 0 0 0 .341-1.558v-1.062a3.557 3.557 0 0 1 -2.112 2.99z" fill="url(#linear-gradient-9)"/><path d="m49.1 15.133a4.566 4.566 0 0 0 -.1.867 6.992 6.992 0 0 0 12.177 4.7c-.164-.486-.34-.977-.532-1.473a6.985 6.985 0 0 1 -11.545-4.094z" fill="#f99c06"/></g></svg>