<svg height="512" viewBox="0 0 512 512" width="512" xmlns="http://www.w3.org/2000/svg" xmlns:xlink="http://www.w3.org/1999/xlink" isolation="isolate"><radialGradient id="_rgradient_65" cx=".5" cy=".5" gradientTransform="matrix(1280 5.89 185.031 1707.08 -441.515 -701.43)" gradientUnits="userSpaceOnUse" r=".5"><stop offset=".01304347826" stop-color="#974f2d"/><stop offset=".97391304348" stop-color="#532009"/></radialGradient><radialGradient id="_rgradient_66" cx=".5" cy=".5" gradientTransform="matrix(1262 -17.559 6 943.559 -364 -329.22)" gradientUnits="userSpaceOnUse" r=".5"><stop offset=".01304347826" stop-color="#ffcebb"/><stop offset=".89705293782" stop-color="#bb7c66"/></radialGradient><radialGradient id="_rgradient_67" cx=".5" cy=".5" fx=".517" fy=".494" gradientTransform="matrix(603.411 8.575 32.027 134.53 -98.841 352.57)" gradientUnits="userSpaceOnUse" r=".5"><stop offset=".03043478261" stop-color="#53250f"/><stop offset=".56956521739" stop-color="#37190b"/></radialGradient><radialGradient id="_rgradient_68" cx=".5" cy=".5" fx=".517" fy=".494" gradientTransform="matrix(-414.5 -18 -22 -282.403 499.75 467.451)" gradientUnits="userSpaceOnUse" r=".5"><stop offset=".01739130435" stop-color="#572a15"/><stop offset=".56956521739" stop-color="#37190b"/></radialGradient><linearGradient id="lg1"><stop offset=".02173913043" stop-color="#53250f"/><stop offset=".97391304348" stop-color="#37190b"/></linearGradient><linearGradient id="_lgradient_26" gradientTransform="matrix(54.86 0 0 63.996 153.5 220.004)" gradientUnits="userSpaceOnUse" x1=".455" x2=".501" xlink:href="#lg1" y1=".069" y2="1.025"/><linearGradient id="_lgradient_27" gradientTransform="matrix(54.86 0 0 63.996 303.64 220.004)" gradientUnits="userSpaceOnUse" x1=".455" x2=".501" xlink:href="#lg1" y1=".069" y2="1.025"/><path d="m408.944 138.234c14.22 17.175 25.455 36.136 31.805 55.096l35.409 105.719c31.312 93.49-14.572 183.192-102.4 200.191-64.992 12.58-170.524 12.58-235.516 0-87.828-16.999-133.712-106.701-102.4-200.191l35.409-105.719c6.338-18.926 17.544-37.852 31.728-55.002-5.97-1.213-11.969-2.9-17.871-5.068l-9.832-3.613c-39.793-14.624-53.292-55.322-30.124-90.827l3.905-5.985c23.167-35.505 65.855-39.542 95.267-9.008l7.267 7.544c13.876 14.405 23.683 31.674 28.295 47.91 7.03-2.98 14.08-5.329 21.05-6.969 30.391-7.151 79.737-7.151 110.128 0 6.813 1.603 13.703 3.884 20.576 6.773 4.635-16.179 14.419-33.367 28.239-47.714l7.267-7.544c29.412-30.534 72.1-26.497 95.267 9.008l3.905 5.985c23.167 35.505 9.669 76.203-30.124 90.827l-9.832 3.613c-5.753 2.114-11.597 3.77-17.418 4.974z" fill="url(#_rgradient_65)"/><path d="m230.156 333.844c13.712.377 35.976.377 49.688 0 45.762-1.261 98.929 26.315 118.652 61.542 29.256 52.253-7.593 101.692-82.237 110.334-33.81 3.914-88.708 3.914-122.518 0-74.644-8.642-111.493-58.081-82.237-110.334 19.723-35.227 72.89-62.803 118.652-61.542zm-78.389-239.4c2.854-13.111-4.228-32.327-18.119-46.748l-4.351-4.517c-17.611-18.282-43.17-15.865-57.041 5.393l-2.338 3.583c-13.871 21.259-5.789 45.627 18.037 54.382l5.887 2.164c11.68 4.292 23.997 5.431 34.248 3.778 7.556-6.621 15.502-12.693 23.677-18.035zm207.936 0c-2.854-13.111 4.228-32.327 18.119-46.748l4.351-4.517c17.61-18.282 43.169-15.865 57.041 5.393l2.338 3.583c13.871 21.259 5.789 45.627-18.037 54.382l-5.887 2.164c-11.681 4.292-23.998 5.431-34.249 3.778-7.555-6.621-15.502-12.693-23.676-18.035z" fill="url(#_rgradient_66)" fill-rule="evenodd"/><path d="m160.03 426.33c-1.27 1.87-3.23 3.15-5.44 3.57-2.21.43-4.51-.05-6.37-1.32-1.86-1.26-3.15-3.22-3.57-5.44-.42-2.21.05-4.5 1.32-6.37.99-1.45 2.06-2.83 3.21-4.16 1.1-1.26 2.28-2.45 3.54-3.55 1.21-1.07 2.49-2.06 3.82-2.97 1.34-.9 2.74-1.71 4.18-2.43 2.47-1.21 5.07-2.1 7.76-2.65 2.63-.54 5.32-.81 8.01-.81 4.15 0 8.26.61 12.23 1.82 1.98.6 3.91 1.37 5.77 2.3 1.88.93 3.66 2.06 5.31 3.35.01.01.02.01.03.02l8.68 6.83c1.38 1.06 2.95 1.86 4.62 2.36 1.95.61 3.99.92 6.04.91 1.66.01 3.31-.2 4.91-.62 1.37-.34 2.67-.9 3.87-1.64l9.22-5.84c.02-.01.04-.03.06-.04 2.9-1.79 6.05-3.12 9.36-3.94 3.25-.83 6.59-1.24 9.95-1.23 3.46-.01 6.91.43 10.26 1.3 3.4.86 6.64 2.27 9.59 4.16.03.02.05.03.07.05l8.22 5.38c1.17.75 2.45 1.31 3.8 1.67 1.56.42 3.18.63 4.8.62 1.98.01 3.96-.3 5.85-.9 1.62-.5 3.15-1.3 4.48-2.36l7.93-6.43c.01-.01.02-.02.03-.02 1.69-1.36 3.52-2.55 5.46-3.53 1.91-.98 3.9-1.79 5.94-2.43 4.1-1.28 8.36-1.93 12.65-1.92 2.55-.01 5.09.23 7.59.72 2.55.49 5.02 1.29 7.38 2.37 1.86.87 3.68 1.86 5.43 2.95 1.51.94 2.95 1.99 4.3 3.15 1.26 1.09 2.43 2.28 3.5 3.55 1 1.21 1.89 2.52 2.64 3.9 1.08 1.98 1.33 4.31.69 6.47-.63 2.16-2.1 3.98-4.08 5.06s-4.31 1.33-6.47.69c-2.16-.63-3.98-2.1-5.06-4.08-.23-.41-.49-.8-.79-1.16-.46-.55-.96-1.06-1.51-1.53-.69-.6-1.43-1.14-2.21-1.62-1.15-.72-2.35-1.38-3.59-1.95-1.11-.51-2.27-.88-3.46-1.11-1.43-.28-2.89-.42-4.34-.41-2.58-.01-5.14.38-7.6 1.15-1.13.35-2.23.8-3.29 1.34-.89.45-1.74 1-2.52 1.63l-7.95 6.44c-.02.02-.04.03-.06.05-2.97 2.37-6.36 4.16-9.99 5.3-3.54 1.12-7.23 1.69-10.95 1.68-3.09.01-6.18-.39-9.17-1.19-3.07-.82-5.99-2.11-8.66-3.83-.02-.01-.03-.02-.05-.03l-8.21-5.37c-1.43-.91-2.99-1.58-4.63-2-1.97-.51-3.99-.77-6.02-.76-1.96-.01-3.92.23-5.82.72-1.59.39-3.11 1.02-4.5 1.88l-9.2 5.83c-.02.01-.03.02-.05.03-2.68 1.67-5.6 2.92-8.66 3.7-2.99.77-6.06 1.16-9.15 1.15-3.72.01-7.43-.55-10.99-1.65-3.65-1.1-7.06-2.85-10.07-5.18-.03-.02-.05-.03-.07-.05l-8.7-6.85c-.76-.59-1.57-1.1-2.43-1.53-1.01-.5-2.06-.92-3.14-1.25-2.36-.72-4.81-1.08-7.28-1.08-1.54 0-3.08.15-4.59.47-1.26.25-2.48.67-3.64 1.23-.76.38-1.49.81-2.19 1.28-.73.49-1.43 1.03-2.09 1.61-.7.62-1.36 1.29-1.98 2-.7.81-1.36 1.66-1.96 2.54z" fill="url(#_rgradient_67)"/><path d="m277.305 364.886-9.108 1.221c-6.732.902-17.662.902-24.394 0l-9.108-1.221c-11.423-1.531-25.441-10.839-31.283-20.773l-5.1-8.671c-10.433-17.74-2.295-33.974 18.162-36.229l12.097-1.333c15.139-1.669 39.719-1.669 54.858 0l12.097 1.333c20.457 2.255 28.595 18.489 18.162 36.229l-5.1 8.671c-5.842 9.934-19.86 19.242-31.283 20.773z" fill="url(#_rgradient_68)"/><path d="m156.9 235.3c-1.8-1.35-3-3.37-3.31-5.6-.32-2.23.26-4.5 1.61-6.3s3.37-3 5.6-3.31c2.23-.32 4.5.26 6.3 1.61l29.261 21.949c6.622 4.968 6.541 12.923-.182 17.754l-29.219 20.997c-1.83 1.32-4.11 1.85-6.33 1.49-2.23-.37-4.22-1.6-5.53-3.43-1.32-1.83-1.85-4.11-1.49-6.33.37-2.23 1.6-4.22 3.43-5.53l18.54-13.331c2.241-1.611 2.267-4.263.06-5.918z" fill="url(#_lgradient_26)"/><path d="m354.96 268.6c1.83 1.31 3.06 3.3 3.43 5.53.36 2.22-.17 4.5-1.49 6.33-1.31 1.83-3.3 3.06-5.53 3.43-2.22.36-4.5-.17-6.33-1.49l-29.219-20.997c-6.723-4.831-6.804-12.786-.182-17.754l29.261-21.949c1.8-1.35 4.07-1.93 6.3-1.61 2.23.31 4.25 1.51 5.6 3.31s1.93 4.07 1.61 6.3c-.31 2.23-1.51 4.25-3.31 5.6l-18.74 14.051c-2.207 1.655-2.181 4.307.06 5.918z" fill="url(#_lgradient_27)"/></svg>