<svg id="Layer_1" enable-background="new 0 0 512 512" height="512" viewBox="0 0 512 512" width="512" xmlns="http://www.w3.org/2000/svg" xmlns:xlink="http://www.w3.org/1999/xlink"><radialGradient id="XMLID_3_" cx="259" cy="329.998" gradientUnits="userSpaceOnUse" r="234.155"><stop offset=".7366" stop-color="#ffc970"/><stop offset="1" stop-color="#ffb233"/></radialGradient><linearGradient id="XMLID_4_" gradientUnits="userSpaceOnUse" x1="256" x2="256" y1="318.5" y2="497.101"><stop offset=".4835" stop-color="#ebeae0"/><stop offset="1" stop-color="#d7d5c1"/></linearGradient><linearGradient id="lg1"><stop offset=".4167" stop-color="#9cd3fc"/><stop offset="1" stop-color="#6abdfb"/></linearGradient><radialGradient id="XMLID_5_" cx="172" cy="373.5" gradientUnits="userSpaceOnUse" r="95.452" xlink:href="#lg1"/><radialGradient id="XMLID_6_" cx="340" cy="373.5" gradientUnits="userSpaceOnUse" r="95.452" xlink:href="#lg1"/><g id="XMLID_1_"><g id="XMLID_4946_"><path id="XMLID_693_" d="m507 95c-56.8-13.3-115-20-173.3-20h-57.9-19.8-19.8-57.9c-58.3 0-116.5 6.7-173.3 20l48.1 65.4c-31 37.2-48.1 84.2-48.1 132.8 0 86.5 53.7 163.9 134.7 194.3 34.6 12.9 71.2 19.6 108.1 19.6h16.3c36.9 0 73.6-6.6 108.1-19.6 81-30.3 134.7-107.7 134.7-194.3 0-48.6-17.1-95.6-48.1-132.8z" fill="url(#XMLID_3_)"/><path id="XMLID_691_" d="m256 240c-12.4 0-23.9 6.5-30.2 17.2l-8.4 14.1c-6.5 11-18.4 17.7-31.1 17.7-20 0-36.2 16.2-36.2 36.2v165.8c31.5 10.5 64.6 15.9 97.8 15.9h16.3c33.3 0 66.3-5.4 97.8-15.9v-165.8c0-20-16.2-36.2-36.2-36.2-12.8 0-24.6-6.7-31.1-17.7l-8.4-14.1c-6.4-10.7-17.9-17.2-30.3-17.2z" fill="url(#XMLID_4_)"/><g fill="#e36414"><path id="XMLID_3677_" d="m9.2 334.5c2.1 10.6 5.1 20.9 8.8 30.9 25.8-10.5 43.6-24.2 40.8-31.9-2.8-7.6-24.1-6.9-49.6 1z"/><path id="XMLID_3676_" d="m58.7 280.6c3.1-8.4-18.5-24-48.2-34.8-2.5 10.7-4.2 21.6-5 32.7 27.2 8.8 50.4 9.9 53.2 2.1z"/><path id="XMLID_3675_" d="m501.5 245.7c-29.7 10.8-51.3 26.4-48.2 34.8 2.9 7.8 26.1 6.7 53.2-2.2-.8-11-2.5-21.9-5-32.6z"/><path id="XMLID_3674_" d="m453.3 333.4c-2.8 7.7 15 21.4 40.8 31.9 3.7-10 6.7-20.3 8.8-30.9-25.6-7.8-46.9-8.5-49.6-1z"/><path id="XMLID_3672_" d="m170.8 75.1c.6 1.8 1.2 3.7 1.9 5.5 10.8 29.7 26.4 51.2 34.8 48.2 7.9-2.9 6.7-26.4-2.4-53.7h-26.9c-2.4-.1-4.9-.1-7.4 0z"/><path id="XMLID_3671_" d="m256 145c13.8 0 25-31.3 25-70h-5.2-19.8-19.8-5.2c0 38.7 11.2 70 25 70z"/><path id="XMLID_3670_" d="m333.7 75h-26.9c-9.1 27.4-10.3 50.9-2.4 53.7 8.4 3.1 24-18.5 34.8-48.2.7-1.8 1.3-3.7 1.9-5.5-2.4 0-4.9 0-7.4 0z"/></g><path id="XMLID_3669_" d="m56.6 156.3c10.7-12.2 22.6-23.2 35.4-32.8l-87-28.5 48.1 65.4c1.1-1.4 2.3-2.8 3.5-4.1z" fill="#ebeae0"/><path id="XMLID_3668_" d="m420 123.4c12.8 9.7 24.6 20.6 35.4 32.8 1.2 1.4 2.4 2.7 3.5 4.1l48.1-65.3z" fill="#ebeae0"/><g id="XMLID_3666_"><path id="XMLID_3667_" d="m251 260h10v86h-10z" fill="#b24e10"/></g><g id="XMLID_3664_"><path id="XMLID_3665_" d="m103 303.4h10v41.2h-10z" fill="#b24e10" transform="matrix(.243 .97 -.97 .243 396.124 140.629)"/></g><g id="XMLID_3662_"><path id="XMLID_3663_" d="m87.4 289h41.2v10h-41.2z" fill="#b24e10" transform="matrix(.97 .243 -.243 .97 74.53 -17.416)"/></g><g id="XMLID_3660_"><path id="XMLID_3661_" d="m399 273.4h10v41.2h-10z" fill="#b24e10" transform="matrix(.243 .97 -.97 .243 591.216 -169.252)"/></g><g id="XMLID_3658_"><path id="XMLID_3659_" d="m383.4 319h41.2v10h-41.2z" fill="#b24e10" transform="matrix(.97 .243 -.243 .97 90.644 -88.311)"/></g><path id="XMLID_2293_" d="m232 320h48c22.1 0 40 17.9 40 40 0 9.3-9.7 15.5-18.1 11.5-29.1-13.6-62.7-13.6-91.8 0-8.4 4-18.1-2.2-18.1-11.5 0-22.1 17.9-40 40-40z" fill="#db3429"/><path id="XMLID_2292_" d="m162 507c-5.5 0-10-4.5-10-10v-135.7c0-41.3 6.8-82.2 20-121.3h20l-5.1 17.5c-9.9 34.2-14.9 69.6-14.9 105.2v134.3c0 5.5-4.5 10-10 10z" fill="url(#XMLID_5_)"/><path id="XMLID_2291_" d="m350 507c5.5 0 10-4.5 10-10v-135.7c0-41.3-6.8-82.2-20-121.3h-20l5.1 17.5c9.9 34.2 14.9 69.6 14.9 105.2v134.3c0 5.5 4.5 10 10 10z" fill="url(#XMLID_6_)"/><path id="XMLID_1741_" d="m261.9 240h-11.7c-7.8 0-14.1 6.3-14.1 14.1 0 3.8 1.5 7.3 4.1 10l15.8 15.9 15.9-15.9c2.7-2.7 4.1-6.2 4.1-10 0-7.8-6.3-14.1-14.1-14.1z" fill="#e36414"/><g id="XMLID_1699_"><path id="XMLID_1700_" d="m172 205v-10c11.6 0 22.4-4.5 30.6-12.7l5.9-5.9 7.1 7.1-5.9 5.9c-10.1 10.1-23.5 15.6-37.7 15.6z" fill="#b24e10"/></g><g id="XMLID_1697_"><path id="XMLID_1698_" d="m340 205c-14.2 0-27.6-5.5-37.7-15.6l-5.9-5.9 7.1-7.1 5.9 5.9c8.2 8.2 19 12.7 30.6 12.7z" fill="#b24e10"/></g><g id="XMLID_1692_"><path id="XMLID_1696_" d="m172 235h40v10h-40z" fill="#b24e10"/></g><g id="XMLID_1690_"><path id="XMLID_1691_" d="m300 235h40v10h-40z" fill="#b24e10"/></g></g></g></svg>