<svg height="512" viewBox="0 0 64 64" width="512" xmlns="http://www.w3.org/2000/svg" xmlns:xlink="http://www.w3.org/1999/xlink"><linearGradient id="linear-gradient" gradientUnits="userSpaceOnUse" x1="32" x2="32" y1="1.304" y2="63.304"><stop offset="0" stop-color="#ffe100"/><stop offset="1" stop-color="#f98900"/></linearGradient><linearGradient id="linear-gradient-2" gradientUnits="userSpaceOnUse" x1="32" x2="32" y1="43.019" y2="34.298"><stop offset="0" stop-color="#911625"/><stop offset=".412" stop-color="#69101b"/><stop offset=".788" stop-color="#4b0c13"/><stop offset="1" stop-color="#400a10"/></linearGradient><linearGradient id="linear-gradient-3" gradientUnits="userSpaceOnUse" x1="15.935" x2="15.935" y1="22.937" y2="62.102"><stop offset="0" stop-color="#8ad4ff"/><stop offset=".535" stop-color="#3e9ff5"/><stop offset="1" stop-color="#0073ed"/></linearGradient><linearGradient id="linear-gradient-4" x1="48" x2="48" xlink:href="#linear-gradient-3" y1="22.825" y2="61.873"/><linearGradient id="linear-gradient-5" gradientUnits="userSpaceOnUse" x1="3.584" x2="13.315" y1="66.425" y2="60.632"><stop offset="0" stop-color="#8ad4ff"/><stop offset=".26" stop-color="#5ab3f9"/><stop offset=".745" stop-color="#0577ee"/><stop offset="1" stop-color="#0073ed"/></linearGradient><linearGradient id="linear-gradient-6" x1="58.765" x2="51.312" xlink:href="#linear-gradient-5" y1="67.207" y2="61.835"/><linearGradient id="linear-gradient-7" gradientUnits="userSpaceOnUse" x1="48.79" x2="48.26" y1="20.222" y2="22.42"><stop offset="0" stop-color="#803f02"/><stop offset=".174" stop-color="#6d3602"/><stop offset=".515" stop-color="#4d2601"/><stop offset=".802" stop-color="#3a1c01"/><stop offset="1" stop-color="#331901"/></linearGradient><linearGradient id="linear-gradient-8" gradientUnits="userSpaceOnUse" x1="53.802" x2="42.327" y1="20.49" y2="12.897"><stop offset=".005" stop-color="#414d4d"/><stop offset=".206" stop-color="#3a4545"/><stop offset=".522" stop-color="#272e2e"/><stop offset=".914" stop-color="#080909"/><stop offset="1"/></linearGradient><linearGradient id="linear-gradient-9" gradientTransform="matrix(-1 0 0 1 210 0)" x1="194.79" x2="194.26" xlink:href="#linear-gradient-7" y1="20.222" y2="22.42"/><linearGradient id="linear-gradient-10" x1="9.368" x2="22.643" xlink:href="#linear-gradient-8" y1="20.838" y2="12.851"/><g id="_25-Loudly_Crying_Face" data-name="25-Loudly Crying Face"><path d="m32 63c-27.7 0-31.038-24-31-30v-2c-.038-6 3.3-30 31-30 27.7 0 31.038 24 31 30v2c.038 6-3.3 30-31 30z" fill="url(#linear-gradient)"/><path d="m43.978 45a12.49 12.49 0 0 0 -.588-2.86 11.636 11.636 0 0 0 -3.4-5.03 11.819 11.819 0 0 0 -15.98 0 11.636 11.636 0 0 0 -3.4 5.03 12.49 12.49 0 0 0 -.588 2.86h-.022v1h.022c0 .055-.017.1-.022.16-.04.53.37.95.8.81 1.76-.56 6.13-2.97 11.2-2.97s9.44 2.41 11.2 2.97c.43.14.84-.28.8-.81-.005-.056-.017-.1-.022-.16h.022v-1z" fill="#f9bf06"/><path d="m43.978 44a12.49 12.49 0 0 0 -.588-2.86 11.636 11.636 0 0 0 -3.4-5.03 11.819 11.819 0 0 0 -15.98 0 11.636 11.636 0 0 0 -3.4 5.03 12.49 12.49 0 0 0 -.588 2.86h-.022v1h.022c0 .055-.017.1-.022.16-.04.53.37.95.8.81 1.76-.56 6.13-2.97 11.2-2.97s9.44 2.41 11.2 2.97c.43.14.84-.28.8-.81-.005-.056-.017-.1-.022-.16h.022v-1z" fill="#ed8d06"/><path d="m44 45.16c.04.53-.37.95-.8.81-1.76-.56-6.13-2.97-11.2-2.97s-9.44 2.41-11.2 2.97c-.43.14-.84-.28-.8-.81a12.428 12.428 0 0 1 .61-3.02 11.636 11.636 0 0 1 3.4-5.03 11.819 11.819 0 0 1 15.98 0 11.636 11.636 0 0 1 3.4 5.03 12.428 12.428 0 0 1 .61 3.02z" fill="url(#linear-gradient-2)"/><path d="m47 20c-6-1-7 1-7 1s12 3 16 5a13.937 13.937 0 0 0 -9-6z" fill="#ed8d06"/><path d="m17 20c6-1 7 1 7 1s-12 3-16 5a13.937 13.937 0 0 1 9-6z" fill="#ed8d06"/><path d="m17 59.95a34.025 34.025 0 0 0 13.87 3.04v.01h-27.87a1.955 1.955 0 0 1 -1.41-.59 1.98 1.98 0 0 1 0-2.82 1.955 1.955 0 0 1 1.41-.59 4 4 0 0 0 4-4v-3.42c.07-18.71 5-27.58 5-27.58l-.08-.17a33.052 33.052 0 0 1 8.99-2.57c-.46 1.42-2.57 8.62-3.48 23.75-.26 4.32-.43 9.28-.43 14.94z" fill="url(#linear-gradient-3)"/><path d="m47 59.95c0-5.66-.17-10.62-.43-14.94-.91-15.13-3.02-22.33-3.48-23.75a33.052 33.052 0 0 1 8.99 2.57l-.08.17s4.93 8.87 5 27.58v3.42a4 4 0 0 0 4 4 2 2 0 0 1 0 4h-28v-.01a33.916 33.916 0 0 0 14-3.04z" fill="url(#linear-gradient-4)"/><path d="m18 60.4c-.137-.058-.265-.124-.4-.184-.2-.088-.406-.172-.6-.264v-.012a25.834 25.834 0 0 1 -10-8.369v3.429a4 4 0 0 1 -4 4 1.955 1.955 0 0 0 -1.41.59 1.98 1.98 0 0 0 0 2.82 1.955 1.955 0 0 0 1.41.59h27.87v-.01a34.4 34.4 0 0 1 -13.27-2.776c.135.06.263.126.4.186z" fill="url(#linear-gradient-5)"/><path d="m62.41 59.59a1.955 1.955 0 0 0 -1.41-.59 4 4 0 0 1 -4-4v-3.429a25.834 25.834 0 0 1 -10 8.367v.012c-.2.1-.421.185-.631.278-.124.056-.242.116-.369.17.127-.054.245-.114.369-.17a34.3 34.3 0 0 1 -13.369 2.762v.01h28a1.994 1.994 0 0 0 1.41-3.41z" fill="url(#linear-gradient-6)"/><path d="m56 26a27.793 27.793 0 0 0 -3.92-2.17 33.052 33.052 0 0 0 -8.99-2.57 25.122 25.122 0 0 0 -3.09-.26s1-2 7-1a13.937 13.937 0 0 1 9 6z" fill="url(#linear-gradient-7)"/><path d="m42 12s1 9 14 8c-8-1-14-8-14-8z" fill="#ed8d06"/><path d="m56 20c-12 0-14-8-14-8s6 7 14 8z" fill="url(#linear-gradient-8)"/><path d="m8 26a27.793 27.793 0 0 1 3.92-2.17 33.052 33.052 0 0 1 8.99-2.57 25.122 25.122 0 0 1 3.09-.26s-1-2-7-1a13.937 13.937 0 0 0 -9 6z" fill="url(#linear-gradient-9)"/><path d="m22 12s-1 9-14 8c8-1 14-8 14-8z" fill="#ed8d06"/><path d="m8 20c12 0 14-8 14-8s-6 7-14 8z" fill="url(#linear-gradient-10)"/><g fill="#ed8d06"><path d="m43.09 21.26c.46 1.42 1.57 8.62 2.48 23.75.251 4.176.417 9.883.428 15.371.3-.128.608-.249.9-.385.035-.016.066-.035.1-.051 0-5.657-.17-10.615-.43-14.933-.908-15.132-3.018-22.332-3.478-23.752z"/><path d="m17 59.943c.034.016.064.034.1.05l.016.007c.286.135.592.255.888.381.011-5.488.177-11.195.428-15.371.91-15.13 2.02-22.33 2.48-23.75-.46 1.42-2.57 8.62-3.48 23.75-.262 4.318-.432 9.276-.432 14.933z"/></g></g></svg>