<svg clip-rule="evenodd" fill-rule="evenodd" height="512" stroke-linejoin="round" stroke-miterlimit="2" viewBox="0 0 24 24" width="512" xmlns="http://www.w3.org/2000/svg"><g id="Icon"><path d="m3.75 9v-2c0-.862.342-1.689.952-2.298.609-.61 1.436-.952 2.298-.952h2c.414 0 .75-.336.75-.75s-.336-.75-.75-.75h-2c-1.26 0-2.468.5-3.359 1.391s-1.391 2.099-1.391 3.359v2c0 .414.336.75.75.75s.75-.336.75-.75z"/><path d="m15 3.75h2c.862 0 1.689.342 2.298.952.61.609.952 1.436.952 2.298v2c0 .414.336.75.75.75s.75-.336.75-.75v-2c0-1.26-.5-2.468-1.391-3.359s-2.099-1.391-3.359-1.391c-1.102 0-2 0-2 0-.414 0-.75.336-.75.75s.336.75.75.75z"/><path d="m2.25 15v2c0 1.26.5 2.468 1.391 3.359s2.099 1.391 3.359 1.391h2c.414 0 .75-.336.75-.75s-.336-.75-.75-.75h-2c-.862 0-1.689-.342-2.298-.952-.61-.609-.952-1.436-.952-2.298 0-1.102 0-2 0-2 0-.414-.336-.75-.75-.75s-.75.336-.75.75z"/><path d="m15 21.75h2c1.26 0 2.468-.5 3.359-1.391s1.391-2.099 1.391-3.359c0-1.102 0-2 0-2 0-.414-.336-.75-.75-.75s-.75.336-.75.75v2c0 .862-.342 1.689-.952 2.298-.609.61-1.436.952-2.298.952-1.102 0-2 0-2 0-.414 0-.75.336-.75.75s.336.75.75.75z"/><path d="m14.75 8.5v1c0 .414.336.75.75.75s.75-.336.75-.75v-1c0-.414-.336-.75-.75-.75s-.75.336-.75.75z"/><path d="m7.75 8.5v1c0 .414.336.75.75.75s.75-.336.75-.75v-1c0-.414-.336-.75-.75-.75s-.75.336-.75.75z"/><path d="m11.75 12.536v-2.536c0-.414.336-.75.75-.75s.75.336.75.75v3c0 .284-.161.544-.415.671l-1 .5c-.37.185-.821.035-1.006-.336-.185-.37-.035-.821.336-1.006z"/><path d="m14.97 14.97c.136-.136.323-.22.53-.22.414 0 .75.336.75.75 0 .207-.084.394-.22.53s0 .001-.001.002c-2.225 2.225-5.833 2.225-8.058 0-.001-.001-.001-.002-.001-.002-.136-.136-.22-.323-.22-.53 0-.414.336-.75.75-.75.207 0 .394.084.53.22s.001 0 .002.001c1.639 1.639 4.297 1.639 5.936 0 .001-.001.002-.001.002-.001z"/></g></svg>