<svg height="512" viewBox="0 0 512 512" width="512" xmlns="http://www.w3.org/2000/svg" xmlns:xlink="http://www.w3.org/1999/xlink" isolation="isolate"><radialGradient id="_rgradient_4" cx=".5" cy=".5" gradientTransform="matrix(1280 5.89 185.031 1707.08 -441.515 -701.43)" gradientUnits="userSpaceOnUse" r=".5"><stop offset=".01304347826" stop-color="#974f2d"/><stop offset=".97391304348" stop-color="#532009"/></radialGradient><radialGradient id="_rgradient_5" cx=".5" cy=".5" gradientTransform="matrix(1262 -17.559 6 943.559 -364 -329.22)" gradientUnits="userSpaceOnUse" r=".5"><stop offset=".01304347826" stop-color="#ffcebb"/><stop offset=".89705293782" stop-color="#bb7c66"/></radialGradient><radialGradient id="_rgradient_6" cx=".5" cy=".5" fx=".451" fy=".568" gradientTransform="matrix(-639.985 -22.865 -33.968 -358.725 636.091 602.05)" gradientUnits="userSpaceOnUse" r=".5"><stop offset=".02608695652" stop-color="#53250f"/><stop offset=".56956521739" stop-color="#37190b"/><stop offset=".72608695652" stop-color="#3e1c0c"/></radialGradient><linearGradient id="lg1"><stop offset=".03043478261" stop-color="#53250f"/><stop offset=".97391304348" stop-color="#37190b"/></linearGradient><linearGradient id="_lgradient_2" gradientTransform="matrix(69 0 0 42.931 140.501 230.54)" gradientUnits="userSpaceOnUse" x1=".455" x2=".501" xlink:href="#lg1" y1=".069" y2="1.025"/><linearGradient id="_lgradient_3" gradientTransform="matrix(69 0 0 42.931 302.501 230.54)" gradientUnits="userSpaceOnUse" x1=".455" x2=".501" xlink:href="#lg1" y1=".069" y2="1.025"/><radialGradient id="_rgradient_7" cx=".5" cy=".5" fx=".517" fy=".494" gradientTransform="matrix(-414.5 -18 -22 -282.403 499.75 467.451)" gradientUnits="userSpaceOnUse" r=".5"><stop offset=".01739130435" stop-color="#572a15"/><stop offset=".56956521739" stop-color="#37190b"/></radialGradient><path d="m408.944 138.234c14.22 17.175 25.455 36.136 31.805 55.096l35.409 105.719c31.312 93.49-14.572 183.192-102.4 200.191-64.992 12.58-170.524 12.58-235.516 0-87.828-16.999-133.712-106.701-102.4-200.191l35.409-105.719c6.338-18.926 17.544-37.852 31.728-55.002-5.97-1.213-11.969-2.9-17.871-5.068l-9.832-3.613c-39.793-14.624-53.292-55.322-30.124-90.827l3.905-5.985c23.167-35.505 65.855-39.542 95.267-9.008l7.267 7.544c13.876 14.405 23.683 31.674 28.295 47.91 7.03-2.98 14.08-5.329 21.05-6.969 30.391-7.151 79.737-7.151 110.128 0 6.813 1.603 13.703 3.884 20.576 6.773 4.635-16.179 14.419-33.367 28.239-47.714l7.267-7.544c29.412-30.534 72.1-26.497 95.267 9.008l3.905 5.985c23.167 35.505 9.669 76.203-30.124 90.827l-9.832 3.613c-5.753 2.114-11.597 3.77-17.418 4.974z" fill="url(#_rgradient_4)"/><path d="m230.156 333.844c13.712.377 35.976.377 49.688 0 45.762-1.261 98.929 26.315 118.652 61.542 29.256 52.253-7.593 101.692-82.237 110.334-33.81 3.914-88.708 3.914-122.518 0-74.644-8.642-111.493-58.081-82.237-110.334 19.723-35.227 72.89-62.803 118.652-61.542zm-78.389-239.4c2.854-13.111-4.228-32.327-18.119-46.748l-4.351-4.517c-17.611-18.282-43.17-15.865-57.041 5.393l-2.338 3.583c-13.871 21.259-5.789 45.627 18.037 54.382l5.887 2.164c11.68 4.292 23.997 5.431 34.248 3.778 7.556-6.621 15.502-12.693 23.677-18.035zm207.936 0c-2.854-13.111 4.228-32.327 18.119-46.748l4.351-4.517c17.61-18.282 43.169-15.865 57.041 5.393l2.338 3.583c13.871 21.259 5.789 45.627-18.037 54.382l-5.887 2.164c-11.681 4.292-23.998 5.431-34.249 3.778-7.555-6.621-15.502-12.693-23.676-18.035z" fill="url(#_rgradient_5)" fill-rule="evenodd"/><path d="m362.855 385.993-1.045.22c-56.666 11.913-148.612 12.631-205.2 1.602-8.347-1.627-13.291 3.74-11.032 11.978q20.727 75.598 113.561 75.598 92.835 0 114.673-77.683c2.311-8.223-2.598-13.472-10.957-11.715z" fill="url(#_rgradient_6)"/><path d="m157.28 265.67c-.5 2.19-1.86 4.1-3.77 5.3-1.91 1.19-4.22 1.58-6.42 1.07-2.19-.5-4.1-1.86-5.3-3.77-1.19-1.91-1.58-4.22-1.07-6.42.03-.15.07-.3.1-.46.47-2.27 1.08-4.51 1.82-6.71 1.21-3.59 2.89-6.99 5.01-10.13 1.29-1.89 2.77-3.64 4.41-5.23 1.82-1.76 3.85-3.28 6.04-4.55 2.42-1.38 5.01-2.43 7.71-3.12 2.96-.75 6-1.12 9.06-1.11 3.18-.01 6.34.41 9.4 1.26 2.8.79 5.47 1.96 7.93 3.5 2.23 1.4 4.28 3.06 6.09 4.97 1.65 1.72 3.11 3.59 4.39 5.6 2.08 3.3 3.74 6.87 4.92 10.59.69 2.16 1.25 4.36 1.68 6.59.02.07.03.15.05.23.45 2.21 0 4.5-1.24 6.38-1.25 1.88-3.19 3.19-5.4 3.64s-4.51 0-6.38-1.25c-1.88-1.24-3.19-3.18-3.64-5.39-.02-.12-.05-.24-.07-.36-.31-1.58-.71-3.15-1.2-4.68-.74-2.34-1.78-4.58-3.09-6.66-.67-1.06-1.44-2.05-2.31-2.95-.84-.88-1.78-1.65-2.81-2.29-1.08-.68-2.26-1.2-3.49-1.55-1.57-.43-3.2-.64-4.83-.63-1.64-.01-3.28.18-4.87.58-1.2.31-2.36.78-3.45 1.4-.97.56-1.86 1.24-2.67 2.02s-1.53 1.64-2.17 2.57c-1.25 1.85-2.24 3.87-2.96 5.99-.52 1.57-.96 3.16-1.29 4.78-.06.26-.12.53-.18.79z" fill="url(#_lgradient_2)"/><path d="m319.28 265.67c-.5 2.19-1.86 4.1-3.77 5.3-1.91 1.19-4.22 1.58-6.42 1.07-2.19-.5-4.1-1.86-5.3-3.77-1.19-1.91-1.58-4.22-1.07-6.42.03-.15.07-.3.1-.46.47-2.27 1.08-4.51 1.82-6.71 1.21-3.59 2.89-6.99 5.01-10.13 1.29-1.89 2.77-3.64 4.41-5.23 1.82-1.76 3.85-3.28 6.04-4.55 2.42-1.38 5.01-2.43 7.71-3.12 2.96-.75 6-1.12 9.06-1.11 3.18-.01 6.34.41 9.4 1.26 2.8.79 5.47 1.96 7.93 3.5 2.23 1.4 4.28 3.06 6.09 4.97 1.65 1.72 3.11 3.59 4.39 5.6 2.08 3.3 3.74 6.87 4.92 10.59.69 2.16 1.25 4.36 1.68 6.59.02.07.03.15.05.23.45 2.21 0 4.5-1.24 6.38-1.25 1.88-3.19 3.19-5.4 3.64s-4.51 0-6.38-1.25c-1.88-1.24-3.19-3.18-3.64-5.39-.02-.12-.05-.24-.07-.36-.31-1.58-.71-3.15-1.2-4.68-.74-2.34-1.78-4.58-3.09-6.66-.67-1.06-1.44-2.05-2.31-2.95-.84-.88-1.78-1.65-2.81-2.29-1.08-.68-2.26-1.2-3.49-1.55-1.57-.43-3.2-.64-4.83-.63-1.64-.01-3.28.18-4.87.58-1.2.31-2.36.78-3.45 1.4-.97.56-1.86 1.24-2.67 2.02s-1.53 1.64-2.17 2.57c-1.25 1.85-2.24 3.87-2.96 5.99-.52 1.57-.96 3.16-1.29 4.78-.06.26-.12.53-.18.79z" fill="url(#_lgradient_3)"/><path d="m277.305 364.886-9.108 1.221c-6.732.902-17.662.902-24.394 0l-9.108-1.221c-11.423-1.531-25.441-10.839-31.283-20.773l-5.1-8.671c-10.433-17.74-2.295-33.974 18.162-36.229l12.097-1.333c15.139-1.669 39.719-1.669 54.858 0l12.097 1.333c20.457 2.255 28.595 18.489 18.162 36.229l-5.1 8.671c-5.842 9.934-19.86 19.242-31.283 20.773z" fill="url(#_rgradient_7)"/></svg>