<svg height="512" viewBox="0 0 64 64" width="512" xmlns="http://www.w3.org/2000/svg" xmlns:xlink="http://www.w3.org/1999/xlink"><linearGradient id="linear-gradient" gradientUnits="userSpaceOnUse" x1="32" x2="32" y1="1.304" y2="63.304"><stop offset="0" stop-color="#ffe100"/><stop offset="1" stop-color="#f98900"/></linearGradient><linearGradient id="linear-gradient-2" gradientUnits="userSpaceOnUse" x1="14" x2="50" y1="41.001" y2="41.001"><stop offset="0" stop-color="#b8b4b2"/><stop offset=".143" stop-color="#d0ccc9"/><stop offset=".374" stop-color="#f2edea"/><stop offset=".5" stop-color="#fffaf6"/><stop offset=".638" stop-color="#f9f5f1"/><stop offset=".825" stop-color="#e8e5e3"/><stop offset="1" stop-color="#d1d1d1"/></linearGradient><linearGradient id="linear-gradient-3" gradientUnits="userSpaceOnUse" x1="32" x2="32" y1="53.275" y2="37.041"><stop offset="0" stop-color="#69101b"/><stop offset=".427" stop-color="#400a10"/></linearGradient><linearGradient id="linear-gradient-4" x1="32" x2="32" xlink:href="#linear-gradient-2" y1="38.163" y2="44.885"/><linearGradient id="linear-gradient-5" gradientUnits="userSpaceOnUse" x1="32" x2="32" y1="38.163" y2="44.885"><stop offset="0" stop-color="#ababab" stop-opacity=".5"/><stop offset=".541" stop-color="#c1c1c1" stop-opacity=".216"/><stop offset="1" stop-color="#d1d1d1" stop-opacity="0"/></linearGradient><linearGradient id="linear-gradient-6" gradientUnits="userSpaceOnUse" x1="10.633" x2="24.814" y1="21.008" y2="29.381"><stop offset="0" stop-color="#803f02"/><stop offset=".174" stop-color="#6d3602"/><stop offset=".515" stop-color="#4d2601"/><stop offset=".802" stop-color="#3a1c01"/><stop offset="1" stop-color="#331901"/></linearGradient><linearGradient id="linear-gradient-7" gradientTransform="matrix(-1 0 0 1 86 0)" x1="32.633" x2="46.814" xlink:href="#linear-gradient-6" y1="21.008" y2="29.381"/><g id="_09-Grinning_Squinting_Face" data-name="09-Grinning Squinting Face"><path d="m32 63c-27.7 0-31.038-24-31-30v-2c-.038-6 3.3-30 31-30 27.7 0 31.038 24 31 30v2c.038 6-3.3 30-31 30z" fill="url(#linear-gradient)"/><path d="m48.806 37.034a.986.986 0 0 1 1.19 1.1 14.5 14.5 0 0 1 -.43 2.46 34.766 34.766 0 0 1 -17.566 4.406 34.766 34.766 0 0 1 -17.566-4.409 14.5 14.5 0 0 1 -.43-2.46.986.986 0 0 1 1.19-1.1 63.8 63.8 0 0 0 16.806 2.369 63.8 63.8 0 0 0 16.806-2.366z" fill="url(#linear-gradient-2)"/><path d="m50 37h-.008a.97.97 0 0 0 -1.186-.966 63.8 63.8 0 0 1 -16.806 2.366 63.8 63.8 0 0 1 -16.806-2.369.97.97 0 0 0 -1.186.969h-.008v1h.008a.98.98 0 0 0 0 .133 14.5 14.5 0 0 0 .43 2.46 12.87 12.87 0 0 0 .49 1.559 15.591 15.591 0 0 0 5.089 6.709 19.263 19.263 0 0 0 23.974 0 15.591 15.591 0 0 0 5.089-6.709 12.87 12.87 0 0 0 .49-1.559 14.5 14.5 0 0 0 .43-2.46.98.98 0 0 0 0-.133z" fill="#ed8d06"/><path d="m49.992 38a.97.97 0 0 0 -1.186-.966 63.8 63.8 0 0 1 -16.806 2.366 63.8 63.8 0 0 1 -16.806-2.369.97.97 0 0 0 -1.186.969h-.008v1h.008a.98.98 0 0 0 0 .133 14.5 14.5 0 0 0 .43 2.46 12.87 12.87 0 0 0 .49 1.559 15.591 15.591 0 0 0 5.089 6.709 19.263 19.263 0 0 0 23.974 0 15.591 15.591 0 0 0 5.089-6.709 12.87 12.87 0 0 0 .49-1.559 14.5 14.5 0 0 0 .43-2.46.98.98 0 0 0 0-.133v-1z" fill="#f9bf06"/><path d="m38.918 51.76a19.918 19.918 0 0 1 -13.836 0c.329-.87 1.818-3.76 6.918-3.76s6.589 2.89 6.918 3.76z" fill="#8f030e"/><path d="m49.076 42.152a15.591 15.591 0 0 1 -5.089 6.709 19.067 19.067 0 0 1 -5.069 2.9c-.329-.871-1.818-3.761-6.918-3.761s-6.589 2.889-6.918 3.759a19.067 19.067 0 0 1 -5.069-2.9 15.591 15.591 0 0 1 -5.089-6.709 12.814 12.814 0 0 1 -.49-1.559 34.766 34.766 0 0 0 17.566 4.409 34.766 34.766 0 0 0 17.566-4.409 12.814 12.814 0 0 1 -.49 1.561z" fill="url(#linear-gradient-3)"/><path d="m48.806 37.034a.986.986 0 0 1 1.19 1.1 14.5 14.5 0 0 1 -.43 2.46 34.766 34.766 0 0 1 -17.566 4.406 34.766 34.766 0 0 1 -17.566-4.409 14.5 14.5 0 0 1 -.43-2.46.986.986 0 0 1 1.19-1.1 63.8 63.8 0 0 0 16.806 2.369 63.8 63.8 0 0 0 16.806-2.366z" fill="url(#linear-gradient-4)"/><path d="m48.806 37.034a.986.986 0 0 1 1.19 1.1 14.5 14.5 0 0 1 -.43 2.46 34.766 34.766 0 0 1 -17.566 4.406 34.766 34.766 0 0 1 -17.566-4.409 14.5 14.5 0 0 1 -.43-2.46.986.986 0 0 1 1.19-1.1 63.8 63.8 0 0 0 16.806 2.369 63.8 63.8 0 0 0 16.806-2.366z" fill="url(#linear-gradient-5)"/><path d="m25.919 27.307c-2.612-7.188-12.919-10.307-12.919-10.307a21.771 21.771 0 0 1 7.491 8.782 21.546 21.546 0 0 0 -8.491 2.218 53.66 53.66 0 0 1 12.638 1.971 1.2 1.2 0 0 0 1.281-1.664c-.006-.017-.014-.033-.02-.049a1.316 1.316 0 0 0 .02-.951z" fill="#f99c06"/><path d="m43.509 25.782a21.771 21.771 0 0 1 7.491-8.782s-10.307 3.119-12.919 10.307a1.316 1.316 0 0 0 .02.951c-.006.016-.014.032-.02.049a1.2 1.2 0 0 0 1.281 1.664 53.66 53.66 0 0 1 12.638-1.971 21.546 21.546 0 0 0 -8.491-2.218z" fill="#f99c06"/><path d="m13 17s10.307 3.119 12.919 10.307a1.2 1.2 0 0 1 -1.281 1.664c-2.689-.655-7.938-1.849-12.638-.971a21.964 21.964 0 0 1 10-2.273 25.846 25.846 0 0 0 -9-8.727z" fill="url(#linear-gradient-6)"/><path d="m51 17s-10.307 3.119-12.919 10.307a1.2 1.2 0 0 0 1.281 1.664c2.689-.655 7.938-1.849 12.638-.971a21.964 21.964 0 0 0 -10-2.273 25.846 25.846 0 0 1 9-8.727z" fill="url(#linear-gradient-7)"/></g></svg>