<svg id="Layer_1" enable-background="new 0 0 512 512" height="512" viewBox="0 0 512 512" width="512" xmlns="http://www.w3.org/2000/svg" xmlns:xlink="http://www.w3.org/1999/xlink"><linearGradient id="lg1"><stop offset=".7366" stop-color="#ffc970"/><stop offset="1" stop-color="#ffb233"/></linearGradient><linearGradient id="XMLID_3_" gradientTransform="matrix(-1 0 0 1 -2088 0)" gradientUnits="userSpaceOnUse" x1="-2525.459" x2="-2492.214" xlink:href="#lg1" y1="56.111" y2="104.135"/><linearGradient id="lg2"><stop offset=".7996" stop-color="#ebeae0"/><stop offset="1" stop-color="#d7d5c1"/></linearGradient><radialGradient id="XMLID_4_" cx="-2565.655" cy="86.667" gradientTransform="matrix(-1 0 0 1 -2088 0)" gradientUnits="userSpaceOnUse" r="73.34" xlink:href="#lg2"/><linearGradient id="XMLID_5_" gradientUnits="userSpaceOnUse" x1="74.541" x2="107.786" xlink:href="#lg1" y1="56.111" y2="104.135"/><radialGradient id="XMLID_6_" cx="34.346" cy="86.667" gradientUnits="userSpaceOnUse" r="73.34" xlink:href="#lg2"/><radialGradient id="XMLID_7_" cx="256" cy="291" gradientUnits="userSpaceOnUse" r="234.155" xlink:href="#lg1"/><radialGradient id="XMLID_8_" cx="-2344" cy="291" gradientTransform="matrix(-1 0 0 1 -2088 0)" gradientUnits="userSpaceOnUse" r="234.155" xlink:href="#lg1"/><linearGradient id="XMLID_9_" gradientUnits="userSpaceOnUse" x1="256" x2="256" y1="318.5" y2="497.101"><stop offset=".4835" stop-color="#ebeae0"/><stop offset="1" stop-color="#d7d5c1"/></linearGradient><linearGradient id="lg3"><stop offset="0" stop-color="#e25d55"/><stop offset=".3988" stop-color="#db3429"/><stop offset=".8571" stop-color="#b3271e"/></linearGradient><linearGradient id="XMLID_10_" gradientUnits="userSpaceOnUse" x1="170" x2="170" xlink:href="#lg3" y1="207" y2="291"/><linearGradient id="XMLID_11_" gradientUnits="userSpaceOnUse" x1="342" x2="342" xlink:href="#lg3" y1="207" y2="291"/><g id="XMLID_1_"><g id="XMLID_4960_"><path id="XMLID_1489_" d="m299 163h158c30.5-47.2 31.1-107.8 1.5-155.6l-1.5-2.4h-1.5c-63.4 0-119.5 41.1-138.6 101.6z" fill="url(#XMLID_3_)"/><path id="XMLID_1488_" d="m299 163h158c30.5-47.2 31.1-107.8 1.5-155.6l-1.5-2.4z" fill="url(#XMLID_4_)"/><path id="XMLID_1487_" d="m213 163h-158c-30.5-47.2-31.1-107.8-1.5-155.6l1.5-2.4h1.5c63.4 0 119.5 41.1 138.6 101.6z" fill="url(#XMLID_5_)"/><path id="XMLID_1486_" d="m213 163h-158c-30.5-47.2-31.1-107.8-1.5-155.6l1.5-2.4z" fill="url(#XMLID_6_)"/><path id="XMLID_1484_" d="m372.3 487.4c-34.6 12.9-71.2 19.6-108.1 19.6h-16.3c-36.9 0-73.6-6.6-108.1-19.6-81.1-30.3-134.8-107.7-134.8-194.2 0-50.4 18.3-99 51.6-136.9 45.4-51.7 110.8-81.3 179.6-81.3h39.6c68.8 0 134.2 29.6 179.6 81.3 33.3 37.9 51.6 86.5 51.6 136.9 0 86.5-53.7 163.9-134.7 194.2z" fill="url(#XMLID_7_)"/><path id="XMLID_1483_" d="m139.7 487.4c34.6 12.9 71.2 19.6 108.1 19.6h16.3c36.9 0 73.6-6.6 108.1-19.6 81-30.3 134.7-107.7 134.7-194.3 0-50.4-18.3-99-51.6-136.9-45.3-51.6-110.7-81.2-179.5-81.2h-39.6c-68.8 0-134.2 29.6-179.6 81.3-33.3 37.8-51.6 86.5-51.6 136.9 0 86.5 53.7 163.9 134.7 194.2z" fill="url(#XMLID_8_)"/><path id="XMLID_1482_" d="m256 240c-12.4 0-23.9 6.5-30.2 17.2l-8.4 14.1c-6.5 11-18.4 17.7-31.1 17.7-20 0-36.2 16.2-36.2 36.2v165.8c31.5 10.5 64.6 15.9 97.8 15.9h16.3c33.3 0 66.3-5.4 97.8-15.9v-165.8c0-20-16.2-36.2-36.2-36.2-12.8 0-24.6-6.7-31.1-17.7l-8.4-14.1c-6.4-10.7-17.9-17.2-30.3-17.2z" fill="url(#XMLID_9_)"/><path id="XMLID_3134_" d="m231 75.1c0 38.6 11.2 69.9 25 69.9s25-31.3 25-69.9c-1.7 0-3.5-.1-5.2-.1h-39.6c-1.7 0-3.5 0-5.2.1z" fill="#e36414"/><path id="XMLID_3133_" d="m207.6 128.7c7.7-2.8 6.8-25.3-1.7-51.8-10.9 1.4-21.6 3.5-32.1 6.4 10.7 28.2 25.6 48.4 33.8 45.4z" fill="#e36414"/><path id="XMLID_3132_" d="m306.2 77c-8.5 26.5-9.4 49-1.7 51.8 8.2 3 23.1-17.2 33.8-45.4-10.5-2.9-21.3-5.1-32.1-6.4z" fill="#e36414"/><g id="XMLID_3130_"><path id="XMLID_3131_" d="m251 260h10v60h-10z" fill="#b24e10"/></g><g id="XMLID_3128_"><path id="XMLID_3129_" d="m103 303.4h10v41.2h-10z" fill="#b24e10" transform="matrix(.243 .97 -.97 .243 396.124 140.629)"/></g><g id="XMLID_3126_"><path id="XMLID_3127_" d="m87.4 289h41.2v10h-41.2z" fill="#b24e10" transform="matrix(.97 .243 -.243 .97 74.53 -17.416)"/></g><g id="XMLID_3124_"><path id="XMLID_3125_" d="m399 273.4h10v41.2h-10z" fill="#b24e10" transform="matrix(.243 .97 -.97 .243 591.216 -169.252)"/></g><g id="XMLID_3122_"><path id="XMLID_3123_" d="m383.4 319h41.2v10h-41.2z" fill="#b24e10" transform="matrix(.97 .243 -.243 .97 90.644 -88.311)"/></g><g fill="#e36414"><path id="XMLID_3121_" d="m261.9 240h-11.7c-7.8 0-14.1 6.3-14.1 14.1 0 3.8 1.5 7.3 4.1 10l15.8 15.9 15.9-15.9c2.7-2.7 4.1-6.2 4.1-10 0-7.8-6.3-14.1-14.1-14.1z"/><path id="XMLID_3120_" d="m9.2 334.5c2.1 10.6 5.1 20.9 8.8 30.9 25.8-10.5 43.6-24.2 40.8-31.9-2.8-7.6-24.1-6.9-49.6 1z"/><path id="XMLID_3119_" d="m58.7 280.6c3.1-8.4-18.5-24-48.2-34.8-2.5 10.7-4.2 21.6-5 32.7 27.2 8.8 50.4 9.9 53.2 2.1z"/><path id="XMLID_3118_" d="m501.5 245.7c-29.7 10.8-51.3 26.4-48.2 34.8 2.9 7.8 26.1 6.7 53.2-2.2-.8-11-2.5-21.9-5-32.6z"/><path id="XMLID_3117_" d="m453.3 333.4c-2.8 7.7 15 21.4 40.8 31.9 3.7-10 6.7-20.3 8.8-30.9-25.6-7.8-46.9-8.5-49.6-1z"/></g><path id="XMLID_2815_" d="m256 368c-26.5 0-48-21.5-48-48h96c0 26.5-21.5 48-48 48z" fill="#db3429"/><path id="XMLID_2307_" d="m195 200c-4.5 0-8.8 1.8-12 5l-13 13-13-13c-3.2-3.2-7.5-5-12-5-9.4 0-17 7.6-17 17 0 14.7 6 28.8 16.7 38.9l25.3 24.1 25.3-24.1c10.7-10.2 16.7-24.2 16.7-38.9 0-9.4-7.6-17-17-17z" fill="url(#XMLID_10_)"/><path id="XMLID_1491_" d="m367 200c-4.5 0-8.8 1.8-12 5l-13 13-13-13c-3.2-3.2-7.5-5-12-5-9.4 0-17 7.6-17 17 0 14.7 6 28.8 16.7 38.9l25.3 24.1 25.3-24.1c10.7-10.2 16.7-24.2 16.7-38.9 0-9.4-7.6-17-17-17z" fill="url(#XMLID_11_)"/><g id="XMLID_1770_"><path id="XMLID_1771_" d="m304 325h-96c-13.8 0-25-11.2-25-25h10c0 8.3 6.7 15 15 15h96c8.3 0 15-6.7 15-15h10c0 13.8-11.2 25-25 25z" fill="#b24e10"/></g></g></g></svg>