<svg id="Layer_1" enable-background="new 0 0 512 512" height="512" viewBox="0 0 512 512" width="512" xmlns="http://www.w3.org/2000/svg" xmlns:xlink="http://www.w3.org/1999/xlink"><radialGradient id="XMLID_3_" cx="259" cy="329.998" gradientUnits="userSpaceOnUse" r="234.155"><stop offset=".7366" stop-color="#ffc970"/><stop offset="1" stop-color="#ffb233"/></radialGradient><linearGradient id="XMLID_4_" gradientUnits="userSpaceOnUse" x1="256" x2="256" y1="332.62" y2="497.842"><stop offset=".4835" stop-color="#ebeae0"/><stop offset="1" stop-color="#d7d5c1"/></linearGradient><linearGradient id="XMLID_5_" gradientUnits="userSpaceOnUse" x1="150" x2="332.668" y1="320" y2="320"><stop offset="0" stop-color="#e25d55"/><stop offset="1" stop-color="#db3429"/></linearGradient><g id="XMLID_1_"><g id="XMLID_5184_"><path id="XMLID_3019_" d="m507 95c-56.8-13.3-115-20-173.3-20h-57.9-19.8-19.8-57.9c-58.3 0-116.5 6.7-173.3 20l48.1 65.4c-31 37.2-48.1 84.2-48.1 132.8 0 86.5 53.7 163.9 134.7 194.3 34.6 12.9 71.2 19.6 108.1 19.6h16.3c36.9 0 73.6-6.6 108.1-19.6 81-30.3 134.7-107.7 134.7-194.3 0-48.6-17.1-95.6-48.1-132.8z" fill="url(#XMLID_3_)"/><path id="XMLID_3018_" d="m256 260c-12.4 0-23.9 6.5-30.2 17.2l-8.4 14.1c-6.5 11-18.4 17.7-31.1 17.7-20 0-36.2 16.2-36.2 36.2v145.8c31.5 10.5 64.6 15.9 97.8 15.9h16.3c33.3 0 66.3-5.4 97.8-15.9v-145.8c0-20-16.2-36.2-36.2-36.2-12.8 0-24.6-6.7-31.1-17.7l-8.4-14.1c-6.4-10.7-17.9-17.2-30.3-17.2z" fill="url(#XMLID_4_)"/><g fill="#e36414"><path id="XMLID_3796_" d="m9.2 334.5c2.1 10.6 5.1 20.9 8.8 30.9 25.8-10.5 43.6-24.2 40.8-31.9-2.8-7.6-24.1-6.9-49.6 1z"/><path id="XMLID_3795_" d="m58.7 280.6c3.1-8.4-18.5-24-48.2-34.8-2.5 10.7-4.2 21.6-5 32.7 27.2 8.8 50.4 9.9 53.2 2.1z"/><path id="XMLID_3794_" d="m501.5 245.7c-29.7 10.8-51.3 26.4-48.2 34.8 2.9 7.8 26.1 6.7 53.2-2.2-.8-11-2.5-21.9-5-32.6z"/><path id="XMLID_3793_" d="m453.3 333.4c-2.8 7.7 15 21.4 40.8 31.9 3.7-10 6.7-20.3 8.8-30.9-25.6-7.8-46.9-8.5-49.6-1z"/><path id="XMLID_3791_" d="m170.8 75.1c.6 1.8 1.2 3.7 1.9 5.5 10.8 29.7 26.4 51.2 34.8 48.2 7.9-2.9 6.7-26.4-2.4-53.7h-26.9c-2.4-.1-4.9-.1-7.4 0z"/><path id="XMLID_3790_" d="m256 145c13.8 0 25-31.3 25-70h-5.2-19.8-19.8-5.2c0 38.7 11.2 70 25 70z"/><path id="XMLID_3789_" d="m333.7 75h-26.9c-9.1 27.4-10.3 50.9-2.4 53.7 8.4 3.1 24-18.5 34.8-48.2.7-1.8 1.3-3.7 1.9-5.5-2.4 0-4.9 0-7.4 0z"/></g><path id="XMLID_3788_" d="m56.6 156.3c10.7-12.2 22.6-23.2 35.4-32.8l-87-28.5 48.1 65.4c1.1-1.4 2.3-2.8 3.5-4.1z" fill="#ebeae0"/><path id="XMLID_3787_" d="m420 123.4c12.8 9.7 24.6 20.6 35.4 32.8 1.2 1.4 2.4 2.7 3.5 4.1l48.1-65.3z" fill="#ebeae0"/><g id="XMLID_3785_"><path id="XMLID_3786_" d="m182 220h20v40h-20z" fill="#1f3e75"/></g><g id="XMLID_3783_"><path id="XMLID_3784_" d="m310 220h20v40h-20z" fill="#1f3e75"/></g><path id="XMLID_1882_" d="m171.8 302.9-158.5-67.8c-.9 3.2-1.8 6.5-2.6 9.8l157.1 67.2z" fill="#ebeae0"/><path id="XMLID_1881_" d="m498.7 235.1-164.9 70.5 3.9 9.2 163.6-69.9c-.8-3.3-1.6-6.5-2.6-9.8z" fill="#ebeae0"/><path id="XMLID_1880_" d="m172.3 397.8-3.2-9.5-115.2 38.6c2.3 2.8 4.7 5.5 7.2 8.1z" fill="#ebeae0"/><path id="XMLID_1877_" d="m458.1 426.9-120.9-40.5-3.2 9.5 116.9 39.1c2.5-2.6 4.9-5.3 7.2-8.1z" fill="#ebeae0"/><g id="XMLID_1840_"><path id="XMLID_1841_" d="m43 303.4h10v41.2h-10z" fill="#b24e10" transform="matrix(.243 .97 -.97 .243 350.679 198.837)"/></g><g id="XMLID_1838_"><path id="XMLID_1839_" d="m27.4 289h41.2v10h-41.2z" fill="#b24e10" transform="matrix(.97 .243 -.243 .97 72.739 -2.864)"/></g><g id="XMLID_1836_"><path id="XMLID_1837_" d="m459 273.4h10v41.2h-10z" fill="#b24e10" transform="matrix(.243 .97 -.97 .243 636.661 -227.46)"/></g><g id="XMLID_1833_"><path id="XMLID_1834_" d="m443.4 319h41.2v10h-41.2z" fill="#b24e10" transform="matrix(.97 .243 -.243 .97 92.435 -102.863)"/></g><path id="XMLID_1688_" d="m362 299h-11c-28.1 0-53.7-15.9-66.1-41.1-5.4-11-16.6-17.9-28.9-17.9-12.2 0-23.4 7-28.9 17.9-12.4 25.1-38 41.1-66.1 41.1h-11v101h212z" fill="url(#XMLID_5_)"/><g id="XMLID_1668_"><path id="XMLID_1686_" d="m192 328h128v10h-128z" fill="#b3271e"/></g><g id="XMLID_1666_"><path id="XMLID_1667_" d="m192 361h128v10h-128z" fill="#b3271e"/></g></g></g></svg>