<svg id="Layer_1" enable-background="new 0 0 512 512" height="512" viewBox="0 0 512 512" width="512" xmlns="http://www.w3.org/2000/svg" xmlns:xlink="http://www.w3.org/1999/xlink"><radialGradient id="XMLID_3_" cx="257" cy="182" gradientUnits="userSpaceOnUse" r="251"><stop offset=".7366" stop-color="#ffc970"/><stop offset="1" stop-color="#ffb233"/></radialGradient><linearGradient id="lg1"><stop offset=".4835" stop-color="#ebeae0"/><stop offset="1" stop-color="#d7d5c1"/></linearGradient><linearGradient id="XMLID_4_" gradientUnits="userSpaceOnUse" x1="256" x2="256" xlink:href="#lg1" y1="318.5" y2="497.101"/><linearGradient id="XMLID_5_" gradientUnits="userSpaceOnUse" x1="1.084" x2="75.98" xlink:href="#lg1" y1="54.366" y2="129.263"/><linearGradient id="XMLID_6_" gradientTransform="matrix(-1 0 0 1 1812 0)" gradientUnits="userSpaceOnUse" x1="1301.084" x2="1375.98" xlink:href="#lg1" y1="54.366" y2="129.263"/><g id="XMLID_1_"><g id="XMLID_4988_"><path id="XMLID_3442_" d="m507 5-16.7 10.1c-64.7 39.2-138.9 59.9-214.5 59.9h-39.6c-75.6 0-149.8-20.7-214.5-59.9l-16.7-10.1c0 52.7 15.2 104.2 43.8 148.4l4.4 6.8c-31.1 37.3-48.2 84.3-48.2 133 0 86.5 53.7 163.9 134.7 194.3 34.6 12.9 71.2 19.6 108.1 19.6h16.3c36.9 0 73.6-6.6 108.1-19.6 81-30.3 134.7-107.7 134.7-194.3 0-48.6-17.1-95.7-48.2-132.9l4.4-6.8c28.7-44.3 43.9-95.8 43.9-148.5z" fill="url(#XMLID_3_)"/><path id="XMLID_3471_" d="m256 240c-12.4 0-23.9 6.5-30.2 17.2l-8.4 14.1c-6.5 11-18.4 17.7-31.1 17.7-20 0-36.2 16.2-36.2 36.2v165.8c31.5 10.5 64.6 15.9 97.8 15.9h16.3c33.3 0 66.3-5.4 97.8-15.9v-165.8c0-20-16.2-36.2-36.2-36.2-12.8 0-24.6-6.7-31.1-17.7l-8.4-14.1c-6.4-10.7-17.9-17.2-30.3-17.2z" fill="url(#XMLID_4_)"/><path id="XMLID_1588_" d="m53.2 160.2c1.1-1.3 2.2-2.7 3.4-4 15.9-18.1 34.2-33.5 54.3-45.8-42.2-27.2-78.3-63.1-105.9-105.4 0 52.7 15.2 104.2 43.8 148.4z" fill="url(#XMLID_5_)"/><path id="XMLID_1587_" d="m458.8 160.2c-1.1-1.3-2.2-2.7-3.4-4-15.9-18.1-34.2-33.5-54.3-45.8 42.2-27.2 78.3-63.1 105.9-105.4 0 52.7-15.2 104.2-43.8 148.4z" fill="url(#XMLID_6_)"/><g fill="#e36414"><path id="XMLID_3820_" d="m9.2 334.5c2.1 10.6 5.1 20.9 8.8 30.9 25.8-10.5 43.6-24.2 40.8-31.9-2.8-7.6-24.1-6.9-49.6 1z"/><path id="XMLID_3819_" d="m58.7 280.6c3.1-8.4-18.5-24-48.2-34.8-2.5 10.7-4.2 21.6-5 32.7 27.2 8.8 50.4 9.9 53.2 2.1z"/><path id="XMLID_3818_" d="m501.5 245.7c-29.7 10.8-51.3 26.4-48.2 34.8 2.9 7.8 26.1 6.7 53.2-2.2-.8-11-2.5-21.9-5-32.6z"/><path id="XMLID_3817_" d="m453.3 333.4c-2.8 7.7 15 21.4 40.8 31.9 3.7-10 6.7-20.3 8.8-30.9-25.6-7.8-46.9-8.5-49.6-1z"/></g><g id="XMLID_3814_"><path id="XMLID_3815_" d="m251 260h10v60h-10z" fill="#b24e10"/></g><g id="XMLID_3812_"><path id="XMLID_3813_" d="m103 303.4h10v41.2h-10z" fill="#b24e10" transform="matrix(.243 .97 -.97 .243 396.124 140.63)"/></g><g id="XMLID_3810_"><path id="XMLID_3811_" d="m87.4 289h41.2v10h-41.2z" fill="#b24e10" transform="matrix(.97 .243 -.243 .97 74.53 -17.416)"/></g><g id="XMLID_3808_"><path id="XMLID_3809_" d="m399 273.4h10v41.2h-10z" fill="#b24e10" transform="matrix(.243 .97 -.97 .243 591.216 -169.252)"/></g><g id="XMLID_3806_"><path id="XMLID_3807_" d="m383.4 319h41.2v10h-41.2z" fill="#b24e10" transform="matrix(.97 .243 -.243 .97 90.644 -88.311)"/></g><path id="XMLID_3805_" d="m261.9 240h-11.7c-7.8 0-14.1 6.3-14.1 14.1 0 3.8 1.5 7.3 4.1 10l15.8 15.9 15.9-15.9c2.7-2.7 4.1-6.2 4.1-10 0-7.8-6.3-14.1-14.1-14.1z" fill="#e36414"/><path id="XMLID_3804_" d="m172.7 80.6c10.8 29.7 26.4 51.2 34.8 48.2 8-2.9 6.7-27.1-2.8-54.9-12-.9-23.9-2.3-35.7-4.3 1.2 3.5 2.4 7.2 3.7 11z" fill="#e36414"/><path id="XMLID_3803_" d="m275.8 75h-39.6c-1.7 0-3.2 0-5.2 0 0 38.7 11.2 70 25 70s25-31.3 25-70c-1.7 0-3.5 0-5.2 0z" fill="#e36414"/><path id="XMLID_3802_" d="m307.2 73.8c-9.4 27.9-10.8 52-2.8 54.9 8.4 3.1 24-18.5 34.8-48.2 1.4-3.7 2.6-7.4 3.7-11-11.8 2-23.7 3.4-35.7 4.3z" fill="#e36414"/><g id="XMLID_2303_"><path id="XMLID_2304_" d="m182 220h20v40h-20z" fill="#1f3e75"/></g><g id="XMLID_2301_"><path id="XMLID_2302_" d="m310 220h20v40h-20z" fill="#1f3e75"/></g><g id="XMLID_2299_"><path id="XMLID_2300_" d="m169.6 215h44.7v10h-44.7z" fill="#b24e10" transform="matrix(.894 .447 -.447 .894 118.657 -62.639)"/></g><g id="XMLID_2297_"><path id="XMLID_2298_" d="m315 197.6h10v44.7h-10z" fill="#b24e10" transform="matrix(.447 .894 -.894 .447 373.649 -164.606)"/></g><path id="XMLID_2296_" d="m256 368c-13.8 0-25-11.2-25-25v-23h50v23c0 13.8-11.2 25-25 25z" fill="#e25d55"/><g id="XMLID_2294_"><path id="XMLID_2295_" d="m251 320h10v24h-10z" fill="#db3429"/></g><g id="XMLID_1592_"><path id="XMLID_1593_" d="m304 325h-96c-13.8 0-25-11.2-25-25h10c0 8.3 6.7 15 15 15h96c8.3 0 15-6.7 15-15h10c0 13.8-11.2 25-25 25z" fill="#b24e10"/></g></g></g></svg>