<svg id="Layer_1" enable-background="new 0 0 512 512" height="512" viewBox="0 0 512 512" width="512" xmlns="http://www.w3.org/2000/svg" xmlns:xlink="http://www.w3.org/1999/xlink"><radialGradient id="XMLID_2_" cx="257" cy="182" gradientUnits="userSpaceOnUse" r="251"><stop offset=".7366" stop-color="#ffc970"/><stop offset="1" stop-color="#ffb233"/></radialGradient><linearGradient id="lg1"><stop offset=".4835" stop-color="#ebeae0"/><stop offset="1" stop-color="#d7d5c1"/></linearGradient><linearGradient id="XMLID_3_" gradientUnits="userSpaceOnUse" x1="256" x2="256" xlink:href="#lg1" y1="318.5" y2="497.101"/><linearGradient id="XMLID_5_" gradientUnits="userSpaceOnUse" x1="1.084" x2="75.98" xlink:href="#lg1" y1="54.366" y2="129.263"/><linearGradient id="XMLID_6_" gradientTransform="matrix(-1 0 0 1 1812 0)" gradientUnits="userSpaceOnUse" x1="1301.084" x2="1375.98" xlink:href="#lg1" y1="54.366" y2="129.263"/><linearGradient id="lg2"><stop offset=".4835" stop-color="#ee803a"/><stop offset="1" stop-color="#e36414"/></linearGradient><linearGradient id="XMLID_7_" gradientUnits="userSpaceOnUse" x1="90" x2="90" xlink:href="#lg2" y1="366.473" y2="492.155"/><linearGradient id="XMLID_8_" gradientUnits="userSpaceOnUse" x1="422" x2="422" xlink:href="#lg2" y1="369.473" y2="494.101"/><g id="XMLID_4_"><g id="XMLID_5016_"><path id="XMLID_3497_" d="m507 5-16.7 10.1c-64.7 39.2-138.9 59.9-214.5 59.9h-39.6c-75.6 0-149.8-20.7-214.5-59.9l-16.7-10.1c0 52.7 15.2 104.2 43.8 148.4l4.4 6.8c-31.1 37.3-48.2 84.3-48.2 133 0 86.5 53.7 163.9 134.7 194.3 34.6 12.9 71.2 19.6 108.1 19.6h16.3c36.9 0 73.6-6.6 108.1-19.6 81-30.3 134.7-107.7 134.7-194.3 0-48.6-17.1-95.7-48.2-132.9l4.4-6.8c28.7-44.3 43.9-95.8 43.9-148.5z" fill="url(#XMLID_2_)"/><path id="XMLID_3496_" d="m256 240c-12.4 0-23.9 6.5-30.2 17.2l-8.4 14.1c-6.5 11-18.4 17.7-31.1 17.7-20 0-36.2 16.2-36.2 36.2v165.8c31.5 10.5 64.6 15.9 97.8 15.9h16.3c33.3 0 66.3-5.4 97.8-15.9v-165.8c0-20-16.2-36.2-36.2-36.2-12.8 0-24.6-6.7-31.1-17.7l-8.4-14.1c-6.4-10.7-17.9-17.2-30.3-17.2z" fill="url(#XMLID_3_)"/><path id="XMLID_1586_" d="m53.2 160.2c1.1-1.3 2.2-2.7 3.4-4 15.9-18.1 34.2-33.5 54.3-45.8-42.2-27.2-78.3-63.1-105.9-105.4 0 52.7 15.2 104.2 43.8 148.4z" fill="url(#XMLID_5_)"/><path id="XMLID_396_" d="m458.8 160.2c-1.1-1.3-2.2-2.7-3.4-4-15.9-18.1-34.2-33.5-54.3-45.8 42.2-27.2 78.3-63.1 105.9-105.4 0 52.7-15.2 104.2-43.8 148.4z" fill="url(#XMLID_6_)"/><g fill="#e36414"><path id="XMLID_3844_" d="m9.2 334.5c2.1 10.6 5.1 20.9 8.8 30.9 25.8-10.5 43.6-24.2 40.8-31.9-2.8-7.6-24.1-6.9-49.6 1z"/><path id="XMLID_3843_" d="m58.7 280.6c3.1-8.4-18.5-24-48.2-34.8-2.5 10.7-4.2 21.6-5 32.7 27.2 8.8 50.4 9.9 53.2 2.1z"/><path id="XMLID_3842_" d="m501.5 245.7c-29.7 10.8-51.3 26.4-48.2 34.8 2.9 7.8 26.1 6.7 53.2-2.2-.8-11-2.5-21.9-5-32.6z"/><path id="XMLID_3841_" d="m453.3 333.4c-2.8 7.7 15 21.4 40.8 31.9 3.7-10 6.7-20.3 8.8-30.9-25.6-7.8-46.9-8.5-49.6-1z"/></g><g id="XMLID_3838_"><path id="XMLID_3839_" d="m251 260h10v100h-10z" fill="#b24e10"/></g><g id="XMLID_3836_"><path id="XMLID_3837_" d="m103 303.4h10v41.2h-10z" fill="#b24e10" transform="matrix(.243 .97 -.97 .243 396.124 140.63)"/></g><g id="XMLID_3834_"><path id="XMLID_3835_" d="m87.4 289h41.2v10h-41.2z" fill="#b24e10" transform="matrix(.97 .243 -.243 .97 74.53 -17.416)"/></g><g id="XMLID_3832_"><path id="XMLID_3833_" d="m399 273.4h10v41.2h-10z" fill="#b24e10" transform="matrix(.243 .97 -.97 .243 591.216 -169.252)"/></g><g id="XMLID_3830_"><path id="XMLID_3831_" d="m383.4 319h41.2v10h-41.2z" fill="#b24e10" transform="matrix(.97 .243 -.243 .97 90.644 -88.311)"/></g><path id="XMLID_3829_" d="m261.9 240h-11.7c-7.8 0-14.1 6.3-14.1 14.1 0 3.8 1.5 7.3 4.1 10l15.8 15.9 15.9-15.9c2.7-2.7 4.1-6.2 4.1-10 0-7.8-6.3-14.1-14.1-14.1z" fill="#e36414"/><path id="XMLID_3828_" d="m172.7 80.6c10.8 29.7 26.4 51.2 34.8 48.2 8-2.9 6.7-27.1-2.8-54.9-12-.9-23.9-2.3-35.7-4.3 1.2 3.5 2.4 7.2 3.7 11z" fill="#e36414"/><path id="XMLID_3827_" d="m275.8 75h-39.6c-1.7 0-3.2 0-5.2 0 0 38.7 11.2 70 25 70s25-31.3 25-70c-1.7 0-3.5 0-5.2 0z" fill="#e36414"/><path id="XMLID_3826_" d="m307.2 73.8c-9.4 27.9-10.8 52-2.8 54.9 8.4 3.1 24-18.5 34.8-48.2 1.4-3.7 2.6-7.4 3.7-11-11.8 2-23.7 3.4-35.7 4.3z" fill="#e36414"/><g id="XMLID_2097_"><path id="XMLID_2098_" d="m182 220h20v40h-20z" fill="#1f3e75"/></g><g id="XMLID_2095_"><path id="XMLID_2096_" d="m310 220h20v40h-20z" fill="#1f3e75"/></g><circle id="XMLID_2094_" cx="256" cy="360" fill="#db3429" r="40"/><g id="XMLID_2092_"><path id="XMLID_2093_" d="m217 200h-10c0-8.3-6.7-15-15-15s-15 6.7-15 15h-10c0-13.8 11.2-25 25-25s25 11.2 25 25z" fill="#b24e10"/></g><g id="XMLID_2090_"><path id="XMLID_2091_" d="m345 200h-10c0-8.3-6.7-15-15-15s-15 6.7-15 15h-10c0-13.8 11.2-25 25-25s25 11.2 25 25z" fill="#b24e10"/></g><path id="XMLID_2089_" d="m5 349.8c0 31 14.4 60.2 38.9 79.2 19.6 15.1 31.1 38.5 31.1 63.3v12.7h100c0-63.6-38.2-121-96.9-145.5l-53.9-22.5c-9.1-3.8-19.2 2.9-19.2 12.8z" fill="url(#XMLID_7_)"/><g id="XMLID_2087_"><path id="XMLID_2088_" d="m77.5 420.3-15-17.5c-12.8-14.9-17.3-35.1-12-54l9.6 2.7c-4.4 15.7-.6 32.5 10 44.9l15 17.5z" fill="#e36414"/></g><path id="XMLID_2086_" d="m507 349.8c0 31-14.4 60.2-38.9 79.2-19.6 15.1-31.1 38.5-31.1 63.2v12.8h-100c0-63.6 38.2-121 96.9-145.5l53.9-22.5c9.1-3.8 19.2 2.9 19.2 12.8z" fill="url(#XMLID_8_)"/><g id="XMLID_2084_"><path id="XMLID_2085_" d="m434.5 420.3-7.6-6.5 15-17.5c10.6-12.4 14.3-29.2 10-44.9l9.6-2.7c5.2 18.9.7 39.1-12 54z" fill="#e36414"/></g></g></g></svg>