<svg height="512" viewBox="0 0 64 64" width="512" xmlns="http://www.w3.org/2000/svg" xmlns:xlink="http://www.w3.org/1999/xlink"><linearGradient id="linear-gradient" gradientUnits="userSpaceOnUse" x1="32" x2="32" y1="1.304" y2="63.304"><stop offset="0" stop-color="#ffe100"/><stop offset="1" stop-color="#f98900"/></linearGradient><linearGradient id="linear-gradient-2" gradientUnits="userSpaceOnUse" x1="55" x2="55" y1="1.225" y2="20.742"><stop offset="0" stop-color="#6073ff"/><stop offset=".114" stop-color="#586aeb"/><stop offset=".393" stop-color="#4856bf"/><stop offset=".644" stop-color="#3c489f"/><stop offset=".855" stop-color="#353f8c"/><stop offset="1" stop-color="#323c85"/></linearGradient><linearGradient id="linear-gradient-3" x1="41" x2="41" xlink:href="#linear-gradient-2" y1="6.259" y2="15.936"/><linearGradient id="linear-gradient-4" x1="31" x2="31" xlink:href="#linear-gradient-2" y1="9.1" y2="16.747"/><linearGradient id="linear-gradient-5" gradientUnits="userSpaceOnUse" x1="32" x2="32" y1="54.944" y2="43.32"><stop offset="0" stop-color="#911625"/><stop offset=".587" stop-color="#630f19"/><stop offset="1" stop-color="#400a10"/></linearGradient><linearGradient id="linear-gradient-6" gradientUnits="userSpaceOnUse" x1="45" x2="45" y1="34.019" y2="30.359"><stop offset="0" stop-color="#803f02"/><stop offset=".174" stop-color="#6d3602"/><stop offset=".515" stop-color="#4d2601"/><stop offset=".802" stop-color="#3a1c01"/><stop offset="1" stop-color="#331901"/></linearGradient><linearGradient id="linear-gradient-7" x1="19" x2="19" xlink:href="#linear-gradient-6" y1="33.925" y2="30.137"/><g id="_02-Sleepy_Face" data-name="02-Sleepy Face"><path d="m32 63c-27.7 0-31.038-24-31-30v-2c-.038-6 3.3-30 31-30 27.7 0 31.038 24 31 30v2c.038 6-3.3 30-31 30z" fill="url(#linear-gradient)"/><path d="m48 1v4h10l-11 14v2h16v-4h-9l9-12v-4z" fill="url(#linear-gradient-2)"/><g fill="#f99c06"><path d="m47 21v1h14.587c-.1-.33-.2-.663-.309-1z"/><path d="m44 6h-7v3h4.586l-4.293 4.293a1 1 0 0 0 -.293.707v2a1 1 0 0 0 1 1h7v-3h-4.586l4.293-4.293a1 1 0 0 0 .293-.707v-2a1 1 0 0 0 -1-1z"/><path d="m33.25 9h-5.25v3h2.586l-2.543 2.543a1 1 0 0 0 -.293.707v.75a1.008 1.008 0 0 0 .025.124.906.906 0 0 0 -.025.126v.75a1 1 0 0 0 1 1h5.25v-3h-2.586l2.543-2.543a1 1 0 0 0 .293-.707v-.75a1.008 1.008 0 0 0 -.025-.124.906.906 0 0 0 .025-.126v-.75a1 1 0 0 0 -1-1z"/></g><path d="m45 16h-7a1 1 0 0 1 -1-1v-1a1 1 0 0 1 .293-.707l5.293-5.293h-5.586v-2h7a1 1 0 0 1 1 1v1a1 1 0 0 1 -.293.707l-5.293 5.293h5.586z" fill="url(#linear-gradient-3)"/><path d="m34 17h-5.25a1 1 0 0 1 -1-1v-.75a1 1 0 0 1 .293-.707l3.543-3.543h-3.586v-2h5.25a1 1 0 0 1 1 1v.75a1 1 0 0 1 -.293.707l-3.543 3.543h3.586z" fill="url(#linear-gradient-4)"/><path d="m37 50a5 5 0 0 0 -10 0c0 .171.034.333.05.5-.016.167-.05.329-.05.5a5 5 0 0 0 10 0c0-.171-.034-.333-.05-.5.016-.167.05-.329.05-.5z" fill="#f9bf06"/><path d="m37 49a5 5 0 0 0 -10 0c0 .171.034.333.05.5-.016.167-.05.329-.05.5a5 5 0 0 0 10 0c0-.171-.034-.333-.05-.5.016-.167.05-.329.05-.5z" fill="#ed8d06"/><circle cx="32" cy="50" fill="url(#linear-gradient-5)" r="5"/><path d="m50.258 29.341a18.66 18.66 0 0 1 -5.258.659 18.66 18.66 0 0 1 -5.258-.659.991.991 0 0 0 -1.13 1.453.958.958 0 0 0 .072 1.126 8.016 8.016 0 0 0 12.632 0 .958.958 0 0 0 .072-1.126.991.991 0 0 0 -1.13-1.453z" fill="#f99c06"/><path d="m24.258 29.341a18.66 18.66 0 0 1 -5.258.659 18.66 18.66 0 0 1 -5.258-.659.991.991 0 0 0 -1.13 1.453.958.958 0 0 0 .072 1.126 8.016 8.016 0 0 0 12.632 0 .958.958 0 0 0 .072-1.126.991.991 0 0 0 -1.13-1.453z" fill="#f99c06"/><g opacity=".98"><path d="m38.684 30.92a1 1 0 0 1 1.059-1.579 18.646 18.646 0 0 0 5.257.659 18.646 18.646 0 0 0 5.257-.659 1 1 0 0 1 1.059 1.579 8.016 8.016 0 0 1 -12.632 0z" fill="url(#linear-gradient-6)"/><path d="m12.684 30.92a1 1 0 0 1 1.059-1.579 18.646 18.646 0 0 0 5.257.659 18.646 18.646 0 0 0 5.257-.659 1 1 0 0 1 1.059 1.579 8.016 8.016 0 0 1 -12.632 0z" fill="url(#linear-gradient-7)"/></g></g></svg>