<svg height="512" viewBox="0 0 512 512" width="512" xmlns="http://www.w3.org/2000/svg" xmlns:xlink="http://www.w3.org/1999/xlink" isolation="isolate"><radialGradient id="_rgradient_84" cx=".5" cy=".5" gradientTransform="matrix(1280 5.89 185.031 1707.08 -441.515 -701.43)" gradientUnits="userSpaceOnUse" r=".5"><stop offset=".01304347826" stop-color="#974f2d"/><stop offset=".97391304348" stop-color="#532009"/></radialGradient><radialGradient id="_rgradient_85" cx=".5" cy=".5" gradientTransform="matrix(1262 -17.559 6 943.559 -364 -329.22)" gradientUnits="userSpaceOnUse" r=".5"><stop offset=".01304347826" stop-color="#ffcebb"/><stop offset=".89705293782" stop-color="#bb7c66"/></radialGradient><linearGradient id="lg1"><stop offset=".02173913043" stop-color="#53250f"/><stop offset=".97391304348" stop-color="#37190b"/></linearGradient><linearGradient id="_lgradient_34" gradientTransform="matrix(71.758 0 0 40.6 140.12 231.9)" gradientUnits="userSpaceOnUse" x1=".455" x2=".501" xlink:href="#lg1" y1=".069" y2="1.025"/><linearGradient id="_lgradient_35" gradientTransform="matrix(71.758 0 0 40.6 300.122 231.9)" gradientUnits="userSpaceOnUse" x1=".455" x2=".501" xlink:href="#lg1" y1=".069" y2="1.025"/><radialGradient id="_rgradient_86" cx=".5" cy=".5" fx=".451" fy=".568" gradientTransform="matrix(-327.928 13.791 -17.405 216.367 452.436 319.764)" gradientUnits="userSpaceOnUse" r=".5"><stop offset=".02608695652" stop-color="#53250f"/><stop offset=".56956521739" stop-color="#37190b"/><stop offset=".72608695652" stop-color="#3e1c0c"/></radialGradient><linearGradient id="lg2"><stop offset=".01304347826" stop-color="#ffdd78"/><stop offset="1" stop-color="#ffce39"/></linearGradient><radialGradient id="_rgradient_87" cx=".5" cy=".5" gradientTransform="matrix(94.233 0 0 100.21 264.884 60.558)" gradientUnits="userSpaceOnUse" r=".5" xlink:href="#lg2"/><radialGradient id="_rgradient_88" cx=".5" cy=".5" gradientTransform="matrix(92.7 0 0 66.991 360.317 55.34)" gradientUnits="userSpaceOnUse" r=".5" xlink:href="#lg2"/><radialGradient id="_rgradient_89" cx=".5" cy=".5" gradientTransform="matrix(92.4 0 0 64.809 425.8 77.423)" gradientUnits="userSpaceOnUse" r=".5" xlink:href="#lg2"/><radialGradient id="_rgradient_90" cx=".5" cy=".5" fx=".517" fy=".494" gradientTransform="matrix(-414.5 -18 -22 -282.403 499.75 467.451)" gradientUnits="userSpaceOnUse" r=".5"><stop offset=".01739130435" stop-color="#572a15"/><stop offset=".56956521739" stop-color="#37190b"/></radialGradient><path d="m408.944 138.234c14.22 17.175 25.455 36.136 31.805 55.096l35.409 105.719c31.312 93.49-14.572 183.192-102.4 200.191-64.992 12.58-170.524 12.58-235.516 0-87.828-16.999-133.712-106.701-102.4-200.191l35.409-105.719c6.338-18.926 17.544-37.852 31.728-55.002-5.97-1.213-11.969-2.9-17.871-5.068l-9.832-3.613c-39.793-14.624-53.292-55.322-30.124-90.827l3.905-5.985c23.167-35.505 65.855-39.542 95.267-9.008l7.267 7.544c13.876 14.405 23.683 31.674 28.295 47.91 7.03-2.98 14.08-5.329 21.05-6.969 30.391-7.151 79.737-7.151 110.128 0 6.813 1.603 13.703 3.884 20.576 6.773 4.635-16.179 14.419-33.367 28.239-47.714l7.267-7.544c29.412-30.534 72.1-26.497 95.267 9.008l3.905 5.985c23.167 35.505 9.669 76.203-30.124 90.827l-9.832 3.613c-5.753 2.114-11.597 3.77-17.418 4.974z" fill="url(#_rgradient_84)"/><path d="m230.156 333.844c13.712.377 35.976.377 49.688 0 45.762-1.261 98.929 26.315 118.652 61.542 29.256 52.253-7.593 101.692-82.237 110.334-33.81 3.914-88.708 3.914-122.518 0-74.644-8.642-111.493-58.081-82.237-110.334 19.723-35.227 72.89-62.803 118.652-61.542zm-78.389-239.4c2.854-13.111-4.228-32.327-18.119-46.748l-4.351-4.517c-17.611-18.282-43.17-15.865-57.041 5.393l-2.338 3.583c-13.871 21.259-5.789 45.627 18.037 54.382l5.887 2.164c11.68 4.292 23.997 5.431 34.248 3.778 7.556-6.621 15.502-12.693 23.677-18.035zm207.936 0c-2.854-13.111 4.228-32.327 18.119-46.748l4.351-4.517c17.61-18.282 43.169-15.865 57.041 5.393l2.338 3.583c13.871 21.259 5.789 45.627-18.037 54.382l-5.887 2.164c-11.681 4.292-23.998 5.431-34.249 3.778-7.555-6.621-15.502-12.693-23.676-18.035z" fill="url(#_rgradient_85)" fill-rule="evenodd"/><path d="m155.66 268.76c-1.26 1.87-3.22 3.16-5.43 3.59-2.21.42-4.51-.05-6.37-1.31-1.87-1.26-3.16-3.22-3.59-5.43-.42-2.21.05-4.51 1.31-6.37 1.47-2.17 3.11-4.21 4.9-6.11 1.81-1.92 3.75-3.71 5.8-5.36 4.16-3.33 8.69-6.17 13.5-8.48 4.8-2.32 9.82-4.14 15-5.42 2.55-.63 5.13-1.12 7.73-1.46 2.55-.33 5.13-.51 7.7-.51 2.89-.01 5.78.23 8.63.73 2.22.38 4.19 1.63 5.49 3.48 1.3 1.84 1.81 4.13 1.42 6.35-.38 2.22-1.63 4.19-3.48 5.49-1.84 1.3-4.13 1.81-6.35 1.42-1.86-.32-3.76-.48-5.66-.47-1.85 0-3.71.13-5.55.37-1.97.25-3.92.62-5.85 1.1-4.03 1-7.96 2.42-11.7 4.23-3.65 1.75-7.08 3.91-10.24 6.44-1.45 1.16-2.81 2.42-4.08 3.76-1.17 1.24-2.23 2.56-3.18 3.96z" fill="url(#_lgradient_34)"/><path d="m310.08 249.37c-2.22.39-4.51-.12-6.35-1.42-1.85-1.3-3.1-3.27-3.48-5.49-.39-2.22.12-4.51 1.42-6.35 1.3-1.85 3.27-3.1 5.49-3.48 2.85-.5 5.74-.74 8.63-.73 2.57 0 5.15.18 7.7.51 2.6.34 5.18.83 7.73 1.46 5.18 1.28 10.2 3.1 15 5.42 4.81 2.31 9.34 5.15 13.5 8.48 2.05 1.65 3.99 3.44 5.8 5.36 1.79 1.9 3.43 3.94 4.9 6.11 1.26 1.86 1.73 4.16 1.31 6.37-.43 2.21-1.72 4.17-3.59 5.43-1.86 1.26-4.16 1.73-6.37 1.31-2.21-.43-4.17-1.72-5.43-3.59-.95-1.4-2.01-2.72-3.18-3.96-1.27-1.34-2.63-2.6-4.08-3.76-3.16-2.53-6.59-4.69-10.24-6.44-3.74-1.81-7.67-3.23-11.7-4.23-1.93-.48-3.88-.85-5.85-1.1-1.84-.24-3.7-.37-5.55-.37-1.9-.01-3.8.15-5.66.47z" fill="url(#_lgradient_35)"/><path d="m304.527 447.814c-24.969-6.674-65.307-7.087-90.023-.922-8.557 2.134-13.452-4.945-10.924-15.799q8.137-34.934 55.706-34.934 47.568 0 56.213 36.201c2.589 10.84-2.327 17.764-10.972 15.454z" fill="url(#_rgradient_86)"/><path d="m264.63 112.71c-2.22.38-4.51-.13-6.35-1.43s-3.09-3.28-3.47-5.51c-.38-2.22.13-4.5 1.43-6.34 1.31-1.84 3.29-3.09 5.51-3.47l72.387-12.448c8.159-1.403 10.905 2.947 6.127 9.709l-42.509 60.165c-1.592 2.254-.677 3.705 2.043 3.237l37.612-6.463c2.22-.38 4.51.13 6.35 1.43 1.84 1.31 3.09 3.29 3.47 5.51s-.14 4.5-1.44 6.34-3.28 3.09-5.5 3.47l-68.207 11.728c-8.159 1.403-10.904-2.947-6.126-9.708l42.517-60.167c1.593-2.253.678-3.704-2.042-3.236z" fill="url(#_rgradient_87)"/><path d="m400.46 141.01-48.879-5.341c-8.229-.899-9.67-5.837-3.214-11.02l34.464-27.669c2.152-1.727 1.672-3.374-1.071-3.674l-20.91-2.286c-2.24-.25-4.29-1.37-5.71-3.13-1.41-1.76-2.06-4.01-1.82-6.25.25-2.24 1.37-4.29 3.13-5.7s4.01-2.07 6.25-1.82l51.759 5.66c8.23.899 9.67 5.838 3.215 11.022l-34.455 27.667c-2.152 1.728-1.672 3.374 1.071 3.674l18.02 1.967c2.24.25 4.29 1.37 5.7 3.13s2.07 4 1.82 6.24c-.24 2.24-1.37 4.3-3.13 5.71-1.75 1.41-4 2.06-6.24 1.82z" fill="url(#_rgradient_88)"/><path d="m457.55 154.1-36.83-16.635c-7.545-3.408-7.382-8.55.362-11.475l31.162-11.77c1.548-.585 1.581-1.613.072-2.295l-12.476-5.635c-2.06-.93-3.66-2.64-4.46-4.75-.79-2.1-.72-4.45.21-6.5s2.63-3.66 4.74-4.45c2.11-.8 4.45-.72 6.5.2l38.949 17.587c7.545 3.407 7.384 8.549-.36 11.476l-31.163 11.776c-1.549.586-1.581 1.614-.071 2.295l10.365 4.676c2.05.93 3.65 2.64 4.45 4.74.8 2.11.72 4.45-.21 6.51-.92 2.05-2.63 3.65-4.74 4.45s-4.45.72-6.5-.2z" fill="url(#_rgradient_89)"/><path d="m277.305 364.886-9.108 1.221c-6.732.902-17.662.902-24.394 0l-9.108-1.221c-11.423-1.531-25.441-10.839-31.283-20.773l-5.1-8.671c-10.433-17.74-2.295-33.974 18.162-36.229l12.097-1.333c15.139-1.669 39.719-1.669 54.858 0l12.097 1.333c20.457 2.255 28.595 18.489 18.162 36.229l-5.1 8.671c-5.842 9.934-19.86 19.242-31.283 20.773z" fill="url(#_rgradient_90)"/></svg>