<svg id="Layer_1" enable-background="new 0 0 512 512" height="512" viewBox="0 0 512 512" width="512" xmlns="http://www.w3.org/2000/svg"><g id="XMLID_1_"><g id="XMLID_4551_"><path id="XMLID_938_" d="m299 163h158c30.5-47.2 31.1-107.8 1.5-155.6l-1.5-2.4h-1.5c-63.4 0-119.5 41.1-138.6 101.6z" fill="#ffc970"/><path id="XMLID_8_" d="m339.3 62.9c-9.7 12.9-17.4 27.6-22.5 43.6l-17.8 56.5h158c4.5-7 8.4-14.4 11.6-21.9-34.6-38.7-79.8-65.6-129.3-78.2z" fill="#ffb233"/><path id="XMLID_937_" d="m299 163h158c30.5-47.2 31.1-107.8 1.5-155.6l-1.5-2.4z" fill="#d7d5c1"/><path id="XMLID_940_" d="m213 163h-158c-30.5-47.2-31.1-107.8-1.5-155.6l1.5-2.4h1.5c63.4 0 119.5 41.1 138.6 101.6z" fill="#ffc970"/><path id="XMLID_6_" d="m195.1 106.6c-5.1-16-12.8-30.7-22.5-43.6-49.4 12.5-94.6 39.4-129.2 78.1 3.2 7.5 7.1 14.9 11.6 21.9h158z" fill="#ffb233"/><path id="XMLID_939_" d="m213 163h-158c-30.5-47.2-31.1-107.8-1.5-155.6l1.5-2.4z" fill="#d7d5c1"/><path id="XMLID_945_" d="m372.3 487.4c-34.6 12.9-71.2 19.6-108.1 19.6h-16.3c-36.9 0-73.6-6.6-108.1-19.6-81.1-30.3-134.8-107.7-134.8-194.2 0-50.4 18.3-99 51.6-136.9 45.4-51.7 110.8-81.3 179.6-81.3h39.6c68.8 0 134.2 29.6 179.6 81.3 33.3 37.9 51.6 86.5 51.6 136.9 0 86.5-53.7 163.9-134.7 194.2z" fill="#ffc970"/><path id="XMLID_639_" d="m372.3 445.4c-34.6 12.9-71.2 19.6-108.1 19.6h-16.3c-36.9 0-73.6-6.6-108.1-19.6-74.5-27.8-125.8-95.4-133.7-173.2-.7 7-1.1 13.9-1.1 21 0 86.5 53.7 163.9 134.7 194.3 34.6 12.9 71.2 19.6 108.1 19.6h16.3c36.9 0 73.6-6.6 108.1-19.6 81-30.3 134.7-107.7 134.7-194.3 0-7-.4-14-1.1-20.9-7.8 77.7-59.1 145.3-133.5 173.1z" fill="#ffb233"/><path id="XMLID_2856_" d="m256 240c-12.4 0-23.9 6.5-30.2 17.2l-8.4 14.1c-6.5 11-18.4 17.7-31.1 17.7-20 0-36.2 16.2-36.2 36.2v165.8c31.5 10.5 64.6 15.9 97.8 15.9h16.3c33.3 0 66.3-5.4 97.8-15.9v-165.8c0-20-16.2-36.2-36.2-36.2-12.8 0-24.6-6.7-31.1-17.7l-8.4-14.1c-6.4-10.7-17.9-17.2-30.3-17.2z" fill="#ebeae0"/><path id="XMLID_1006_" d="m231 75.1c0 38.6 11.2 69.9 25 69.9s25-31.3 25-69.9c-1.7 0-3.5-.1-5.2-.1h-39.6c-1.7 0-3.5 0-5.2.1z" fill="#e36414"/><path id="XMLID_1008_" d="m207.6 128.7c7.7-2.8 6.8-25.3-1.7-51.8-10.9 1.4-21.6 3.5-32.1 6.4 10.7 28.2 25.6 48.4 33.8 45.4z" fill="#e36414"/><path id="XMLID_943_" d="m306.2 77c-8.5 26.5-9.4 49-1.7 51.8 8.2 3 23.1-17.2 33.8-45.4-10.5-2.9-21.3-5.1-32.1-6.4z" fill="#e36414"/><g id="XMLID_1754_"><path id="XMLID_2862_" d="m251 260h10v60h-10z" fill="#b24e10"/></g><g id="XMLID_1752_"><path id="XMLID_2861_" d="m103 303.4h10v41.2h-10z" fill="#b24e10" transform="matrix(.243 .97 -.97 .243 396.124 140.629)"/></g><g id="XMLID_1751_"><path id="XMLID_2860_" d="m87.4 289h41.2v10h-41.2z" fill="#b24e10" transform="matrix(.97 .243 -.243 .97 74.53 -17.416)"/></g><g id="XMLID_1750_"><path id="XMLID_2859_" d="m399 273.4h10v41.2h-10z" fill="#b24e10" transform="matrix(.243 .97 -.97 .243 591.216 -169.252)"/></g><g id="XMLID_1749_"><path id="XMLID_2858_" d="m383.4 319h41.2v10h-41.2z" fill="#b24e10" transform="matrix(.97 .243 -.243 .97 90.644 -88.311)"/></g><path id="XMLID_1748_" d="m261.9 240h-11.7c-7.8 0-14.1 6.3-14.1 14.1 0 3.8 1.5 7.3 4.1 10l15.8 15.9 15.9-15.9c2.7-2.7 4.1-6.2 4.1-10 0-7.8-6.3-14.1-14.1-14.1z" fill="#e36414"/><g id="XMLID_1705_"><path id="XMLID_2857_" d="m217 260h-10v-20c0-8.3-6.7-15-15-15s-15 6.7-15 15v20h-10v-20c0-13.8 11.2-25 25-25s25 11.2 25 25z" fill="#b24e10"/></g><g id="XMLID_1704_"><path id="XMLID_2855_" d="m345 260h-10v-20c0-8.3-6.7-15-15-15s-15 6.7-15 15v20h-10v-20c0-13.8 11.2-25 25-25s25 11.2 25 25z" fill="#b24e10"/></g><path id="XMLID_1703_" d="m256 414c-26.5 0-48-21.5-48-48v-46h96v46c0 26.5-21.5 48-48 48z" fill="#db3429"/><path id="XMLID_1702_" d="m297.6 390c-8.3-14.3-23.8-24-41.6-24-17.8 0-33.3 9.7-41.6 24 8.3 14.3 23.8 24 41.6 24 17.8 0 33.3-9.7 41.6-24z" fill="#b3271e"/><g id="XMLID_1753_"><path id="XMLID_2854_" d="m304 325h-96c-13.8 0-25-11.2-25-25h10c0 8.3 6.7 15 15 15h96c8.3 0 15-6.7 15-15h10c0 13.8-11.2 25-25 25z" fill="#b24e10"/></g><g fill="#e36414"><path id="XMLID_638_" d="m9.2 334.5c2.1 10.6 5.1 20.9 8.8 30.9 25.8-10.5 43.6-24.2 40.8-31.9-2.8-7.6-24.1-6.9-49.6 1z"/><path id="XMLID_636_" d="m58.7 280.6c3.1-8.4-18.5-24-48.2-34.8-2.5 10.7-4.2 21.6-5 32.7 27.2 8.8 50.4 9.9 53.2 2.1z"/><path id="XMLID_630_" d="m501.5 245.7c-29.7 10.8-51.3 26.4-48.2 34.8 2.9 7.8 26.1 6.7 53.2-2.2-.8-11-2.5-21.9-5-32.6z"/><path id="XMLID_633_" d="m453.3 333.4c-2.8 7.7 15 21.4 40.8 31.9 3.7-10 6.7-20.3 8.8-30.9-25.6-7.8-46.9-8.5-49.6-1z"/></g><path id="XMLID_634_" d="m48.7 152.2 20.2-21.9c21.8-23.7 25.5-58.9 9.1-86.5l-23-38.8-1.5 2.4c-27.4 44.2-28.9 99.4-4.8 144.8z" fill="#ebeae0"/><path id="XMLID_629_" d="m463.3 152.2-20.2-21.9c-21.8-23.7-25.5-58.9-9.1-86.5l23-38.8 1.5 2.4c27.4 44.2 28.9 99.4 4.8 144.8z" fill="#ebeae0"/><path id="XMLID_637_" d="m264.2 465h-16.3c-33.3 0-66.3-5.4-97.8-15.9v42c31.5 10.5 64.6 15.9 97.8 15.9h16.3c33.3 0 66.3-5.4 97.8-15.9v-42c-31.5 10.5-64.6 15.9-97.8 15.9z" fill="#d7d5c1"/></g></g></svg>