<svg height="512" viewBox="0 0 64 64" width="512" xmlns="http://www.w3.org/2000/svg" xmlns:xlink="http://www.w3.org/1999/xlink"><linearGradient id="linear-gradient" gradientUnits="userSpaceOnUse" x1="32" x2="32" y1="1.304" y2="63.304"><stop offset="0" stop-color="#ffe100"/><stop offset="1" stop-color="#f98900"/></linearGradient><radialGradient id="radial-gradient" cx="-18.033" cy="2.706" gradientTransform="matrix(1.412 0 0 1.412 73.459 38.18)" gradientUnits="userSpaceOnUse" r="9.917"><stop offset="0" stop-color="#f60"/><stop offset=".098" stop-color="#ff6800" stop-opacity=".978"/><stop offset=".222" stop-color="#fe6d01" stop-opacity=".916"/><stop offset=".36" stop-color="#fe7501" stop-opacity=".814"/><stop offset=".509" stop-color="#fd8003" stop-opacity=".672"/><stop offset=".666" stop-color="#fc8e04" stop-opacity=".488"/><stop offset=".83" stop-color="#fba006" stop-opacity=".264"/><stop offset=".997" stop-color="#f9b508" stop-opacity=".004"/><stop offset="1" stop-color="#f9b508" stop-opacity="0"/></radialGradient><radialGradient id="radial-gradient-2" cx="-40.7" cy="2.706" r="9.917" xlink:href="#radial-gradient"/><radialGradient id="radial-gradient-3" cx="15.105" cy="32.425" gradientUnits="userSpaceOnUse" r="2.67"><stop offset="0" stop-color="#fff"/><stop offset=".365" stop-color="#fcfdfe"/><stop offset=".636" stop-color="#f3f7fc"/><stop offset=".876" stop-color="#e3ecf7"/><stop offset="1" stop-color="#d7e4f4"/></radialGradient><radialGradient id="radial-gradient-4" cx="24" cy="31" r="2" xlink:href="#radial-gradient-3"/><radialGradient id="radial-gradient-5" cx="19" cy="24" r="4" xlink:href="#radial-gradient-3"/><radialGradient id="radial-gradient-6" cx="40" cy="31" r="2" xlink:href="#radial-gradient-3"/><radialGradient id="radial-gradient-7" cx="45" cy="24" r="4" xlink:href="#radial-gradient-3"/><radialGradient id="radial-gradient-8" cx="48.895" cy="32.425" r="2.67" xlink:href="#radial-gradient-3"/><radialGradient id="radial-gradient-9" cx="45" cy="26.005" gradientUnits="userSpaceOnUse" r="8.998"><stop offset=".005" stop-color="#414d4d"/><stop offset=".206" stop-color="#3a4545"/><stop offset=".522" stop-color="#272e2e"/><stop offset=".914" stop-color="#080909"/><stop offset="1"/></radialGradient><radialGradient id="radial-gradient-10" cx="19" cy="26.005" r="8.998" xlink:href="#radial-gradient-9"/><radialGradient id="radial-gradient-11" cx="45.475" cy="27.813" gradientUnits="userSpaceOnUse" r="10.48"><stop offset="0" stop-color="#fff"/><stop offset=".505" stop-color="#fff"/><stop offset=".588" stop-color="#fff"/><stop offset=".804" stop-color="#fdfeff"/><stop offset=".886" stop-color="#f6faff"/><stop offset=".945" stop-color="#eaf3ff"/><stop offset=".993" stop-color="#d9eaff"/><stop offset="1" stop-color="#d6e8ff"/></radialGradient><radialGradient id="radial-gradient-12" cx="18" cy="27" r="10.512" xlink:href="#radial-gradient-11"/><linearGradient id="linear-gradient-2" gradientUnits="userSpaceOnUse" x1="32" x2="32" y1="48.794" y2="43.567"><stop offset="0" stop-color="#911625"/><stop offset=".412" stop-color="#69101b"/><stop offset=".788" stop-color="#4b0c13"/><stop offset="1" stop-color="#400a10"/></linearGradient><linearGradient id="linear-gradient-3" x1="46.005" x2="46.193" xlink:href="#radial-gradient-9" y1="27.694" y2="18.019"/><linearGradient id="linear-gradient-4" gradientTransform="matrix(-1 0 0 1 24 0)" x1="6.005" x2="6.193" xlink:href="#radial-gradient-9" y1="27.694" y2="18.019"/><radialGradient id="radial-gradient-13" cx="50" cy="15" r="6.964" xlink:href="#radial-gradient-9"/><radialGradient id="radial-gradient-14" cx="18" cy="15" gradientTransform="matrix(-1 0 0 1 32 0)" r="6.964" xlink:href="#radial-gradient-9"/><radialGradient id="radial-gradient-15" cx="32" cy="44.5" r="3.579" xlink:href="#radial-gradient-11"/><g id="_28-Pleading_Face" data-name="28-Pleading Face"><path d="m32 63c-27.7 0-31.038-24-31-30v-2c-.038-6 3.3-30 31-30 27.7 0 31.038 24 31 30v2c.038 6-3.3 30-31 30z" fill="url(#linear-gradient)"/><path d="m59 18a1 1 0 0 0 -1-1c-10.9 0-15.132-5.51-15.193-5.591a1 1 0 0 0 -1.4-.218.989.989 0 0 0 -.268 1.293 1 1 0 0 0 .047 1.1c.195.266 4.803 6.416 16.814 6.416a1 1 0 0 0 1-1 .977.977 0 0 0 -.153-.5.977.977 0 0 0 .153-.5z" fill="#eda406"/><path d="m22.588 11.191a1 1 0 0 0 -1.395.218c-.061.081-4.293 5.591-15.193 5.591a1 1 0 0 0 -1 1 .977.977 0 0 0 .153.5.977.977 0 0 0 -.153.5 1 1 0 0 0 1 1c12.011 0 16.619-6.15 16.809-6.412a1 1 0 0 0 .047-1.1.989.989 0 0 0 -.268-1.297z" fill="#eda406"/><path d="m48 28a14 14 0 1 0 6.835 26.212 30.946 30.946 0 0 0 7.1-13.482 14 14 0 0 0 -13.935-12.73z" fill="url(#radial-gradient)"/><path d="m30 42a14 14 0 0 0 -27.936-1.27 30.946 30.946 0 0 0 7.1 13.482 13.991 13.991 0 0 0 20.836-12.212z" fill="url(#radial-gradient-2)"/><path d="m57 27a10.985 10.985 0 0 0 -10.33-10.98h-.02c-.22-.01-.43-.02-.65-.02-.18 0-.36 0-.54.01h-.03a10.956 10.956 0 0 0 -7.87 3.94s-.02.01-.02.02a10.946 10.946 0 0 0 -2.54 7.03c0 .185.016.348.021.526-.007.158-.021.314-.021.474 0 8 4.92 9 11 9 8 0 11-2.92 11-9 0-.135-.015-.266-.019-.4.007-.2.019-.393.019-.6z" fill="#eda406"/><path d="m57 28a10.985 10.985 0 0 0 -10.33-10.98h-.02c-.22-.01-.43-.02-.65-.02-.18 0-.36 0-.54.01h-.03a10.956 10.956 0 0 0 -7.87 3.94s-.02.01-.02.02a10.946 10.946 0 0 0 -2.54 7.03c0 .185.016.348.021.526-.007.158-.021.314-.021.474 0 8 4.92 9 11 9 8 0 11-2.92 11-9 0-.135-.015-.266-.019-.4.007-.2.019-.393.019-.6z" fill="#ffd000"/><path d="m29 27a10.985 10.985 0 0 0 -10.33-10.98h-.02c-.22-.01-.43-.02-.65-.02-.18 0-.36 0-.54.01h-.03a10.956 10.956 0 0 0 -7.87 3.94s-.02.01-.02.02a10.946 10.946 0 0 0 -2.54 7.03c0 .185.016.348.021.526-.007.158-.021.314-.021.474 0 8 4.92 9 11 9 8 0 11-2.92 11-9 0-.135-.015-.266-.019-.4.007-.2.019-.393.019-.6z" fill="#eda406"/><path d="m29 28a10.985 10.985 0 0 0 -10.33-10.98h-.02c-.22-.01-.43-.02-.65-.02-.18 0-.36 0-.54.01h-.03a10.956 10.956 0 0 0 -7.87 3.94s-.02.01-.02.02a10.946 10.946 0 0 0 -2.54 7.03c0 .185.016.348.021.526-.007.158-.021.314-.021.474 0 8 4.92 9 11 9 8 0 11-2.92 11-9 0-.135-.015-.266-.019-.4.007-.2.019-.393.019-.6z" fill="#ffd000"/><path d="m18 33a2.984 2.984 0 0 1 -.64 1.85 8.992 8.992 0 0 1 -5.15-2.95 3 3 0 0 1 5.79 1.1z" fill="url(#radial-gradient-3)"/><path d="m25.78 31.91a8.931 8.931 0 0 1 -.87.87 1.973 1.973 0 0 1 -.91.22 2 2 0 1 1 2-2 1.973 1.973 0 0 1 -.22.91z" fill="url(#radial-gradient-4)"/><circle cx="19" cy="24" fill="url(#radial-gradient-5)" r="4"/><path d="m42 31a2.006 2.006 0 0 1 -2 2 1.973 1.973 0 0 1 -.91-.22 8.931 8.931 0 0 1 -.87-.87 1.973 1.973 0 0 1 -.22-.91 2 2 0 0 1 4 0z" fill="url(#radial-gradient-6)"/><circle cx="45" cy="24" fill="url(#radial-gradient-7)" r="4"/><path d="m49 30a3 3 0 0 1 2.79 1.9 8.992 8.992 0 0 1 -5.15 2.95 3 3 0 0 1 2.36-4.85z" fill="url(#radial-gradient-8)"/><path d="m45 20a4 4 0 1 0 4 4 4 4 0 0 0 -4-4zm9 6a8.928 8.928 0 0 1 -2.21 5.9 3 3 0 1 0 -5.15 2.95 8.989 8.989 0 0 1 -7.55-2.07 1.973 1.973 0 0 0 .91.22 2 2 0 1 0 -2-2 1.973 1.973 0 0 0 .22.91 8.98 8.98 0 0 1 -.68-10.94c0-.01.02-.02.02-.02a10.956 10.956 0 0 1 7.87-3.94h.03a9 9 0 0 1 8.54 8.99z" fill="url(#radial-gradient-9)"/><path d="m23 24a4 4 0 1 0 -4 4 4 4 0 0 0 4-4zm-10.79 7.9a9 9 0 0 1 6.33-14.89h.03a10.956 10.956 0 0 1 7.87 3.94s.02.01.02.02a8.98 8.98 0 0 1 -.68 10.94 1.973 1.973 0 0 0 .22-.91 2 2 0 1 0 -2 2 1.973 1.973 0 0 0 .91-.22 8.989 8.989 0 0 1 -7.55 2.07 3 3 0 1 0 -5.15-2.95z" fill="url(#radial-gradient-10)"/><path d="m46.67 17.02a10.985 10.985 0 0 1 10.33 10.98c0 6.08-3 9-11 9-6.08 0-11-1-11-9a10.946 10.946 0 0 1 2.54-7.03 9 9 0 0 0 7.46 14.03 8.854 8.854 0 0 0 1.64-.15 9 9 0 0 0 -1.18-17.84c.18-.01.36-.01.54-.01.22 0 .43.01.65.02z" fill="url(#radial-gradient-11)"/><path d="m7 28a10.985 10.985 0 0 1 10.33-10.98h.02c.22-.01.43-.02.65-.02.18 0 .36 0 .54.01a9 9 0 0 0 -1.18 17.84 9.011 9.011 0 0 0 10.64-8.85 8.951 8.951 0 0 0 -1.54-5.03 10.946 10.946 0 0 1 2.54 7.03c0 8-4.92 9-11 9-8 0-11-2.92-11-9z" fill="url(#radial-gradient-12)"/><path d="m38.73 46.82a8.4 8.4 0 0 0 -6.73-3.82 8.4 8.4 0 0 0 -6.73 3.82 1.505 1.505 0 0 0 -.182 1.349c-.317.887.278 1.987 1.122 1.811a34.025 34.025 0 0 1 5.79-.98 34.025 34.025 0 0 1 5.79.98c.844.176 1.439-.924 1.122-1.811a1.505 1.505 0 0 0 -.182-1.349z" fill="#ffd000"/><path d="m38.73 45.82a8.4 8.4 0 0 0 -6.73-3.82 8.4 8.4 0 0 0 -6.73 3.82 1.505 1.505 0 0 0 -.182 1.349c-.317.887.278 1.987 1.122 1.811a34.025 34.025 0 0 1 5.79-.98 34.025 34.025 0 0 1 5.79.98c.844.176 1.439-.924 1.122-1.811a1.505 1.505 0 0 0 -.182-1.349z" fill="#ed8d06"/><path d="m38.73 46.82c.66.91.02 2.36-.94 2.16a34.025 34.025 0 0 0 -5.79-.98 34.025 34.025 0 0 0 -5.79.98c-.96.2-1.6-1.25-.94-2.16a8.4 8.4 0 0 1 6.73-3.82 8.4 8.4 0 0 1 6.73 3.82z" fill="url(#linear-gradient-2)"/><path d="m37.56 21.95a10.956 10.956 0 0 1 7.87-3.94h.03c.18-.01.36-.01.54-.01.22 0 .43.01.65.02h.02a10.976 10.976 0 0 1 10.311 10.58c.007-.2.019-.393.019-.6a10.985 10.985 0 0 0 -10.33-10.98h-.02c-.22-.01-.43-.02-.65-.02-.18 0-.36 0-.54.01h-.03a10.956 10.956 0 0 0 -7.87 3.94s-.02.01-.02.02a10.946 10.946 0 0 0 -2.54 7.03c0 .185.016.348.021.526a10.938 10.938 0 0 1 2.519-6.556c0-.01.02-.02.02-.02z" fill="url(#linear-gradient-3)"/><path d="m26.44 21.95a10.956 10.956 0 0 0 -7.87-3.94h-.03c-.18-.01-.36-.01-.54-.01-.22 0-.43.01-.65.02h-.02a10.976 10.976 0 0 0 -10.311 10.58c-.007-.2-.019-.393-.019-.6a10.985 10.985 0 0 1 10.33-10.98h.02c.22-.01.43-.02.65-.02.18 0 .36 0 .54.01h.03a10.956 10.956 0 0 1 7.87 3.94s.02.01.02.02a10.946 10.946 0 0 1 2.54 7.03c0 .185-.016.348-.021.526a10.938 10.938 0 0 0 -2.519-6.556c0-.01-.02-.02-.02-.02z" fill="url(#linear-gradient-4)"/><path d="m58 19c-12.011 0-16.619-6.15-16.809-6.412a1 1 0 0 1 1.616-1.179c.061.081 4.293 5.591 15.193 5.591a1 1 0 0 1 0 2z" fill="url(#radial-gradient-13)"/><path d="m6 19c12.011 0 16.619-6.15 16.809-6.412a1 1 0 0 0 -1.616-1.179c-.061.081-4.293 5.591-15.193 5.591a1 1 0 0 0 0 2z" fill="url(#radial-gradient-14)"/><path d="m29 46h6a2 2 0 0 0 1.834-1.206 7.41 7.41 0 0 0 -9.668 0 2 2 0 0 0 1.834 1.206z" fill="url(#radial-gradient-15)"/></g></svg>