<svg id="Layer_1" enable-background="new 0 0 512 512" height="512" viewBox="0 0 512 512" width="512" xmlns="http://www.w3.org/2000/svg"><g id="XMLID_1_"><g id="XMLID_4819_"><path id="XMLID_3301_" d="m507 95c-56.8-13.3-115-20-173.3-20h-57.9-19.8-19.8-57.9c-58.3 0-116.5 6.7-173.3 20l48.1 65.4c-31 37.2-48.1 84.2-48.1 132.8 0 86.5 53.7 163.9 134.7 194.3 34.6 12.9 71.2 19.6 108.1 19.6h16.3c36.9 0 73.6-6.6 108.1-19.6 81-30.3 134.7-107.7 134.7-194.3 0-48.6-17.1-95.6-48.1-132.8z" fill="#ffc970"/><path id="XMLID_3300_" d="m372.3 445.4c-34.6 12.9-71.2 19.6-108.1 19.6h-16.3c-36.9 0-73.6-6.6-108.1-19.6-74.5-27.8-125.8-95.4-133.7-173.2-.7 7-1.1 13.9-1.1 21 0 86.5 53.7 163.9 134.7 194.3 34.6 12.9 71.2 19.6 108.1 19.6h16.3c36.9 0 73.6-6.6 108.1-19.6 81-30.3 134.7-107.7 134.7-194.3 0-7-.4-14-1.1-20.9-7.8 77.7-59.1 145.3-133.5 173.1z" fill="#ffb233"/><path id="XMLID_3299_" d="m256 240c-12.4 0-23.9 6.5-30.2 17.2l-8.4 14.1c-6.5 11-18.4 17.7-31.1 17.7-20 0-36.2 16.2-36.2 36.2v165.8c31.5 10.5 64.6 15.9 97.8 15.9h16.3c33.3 0 66.3-5.4 97.8-15.9v-165.8c0-20-16.2-36.2-36.2-36.2-12.8 0-24.6-6.7-31.1-17.7l-8.4-14.1c-6.4-10.7-17.9-17.2-30.3-17.2z" fill="#ebeae0"/><g fill="#e36414"><path id="XMLID_3298_" d="m9.2 334.5c2.1 10.6 5.1 20.9 8.8 30.9 25.8-10.5 43.6-24.2 40.8-31.9-2.8-7.6-24.1-6.9-49.6 1z"/><path id="XMLID_3297_" d="m58.7 280.6c3.1-8.4-18.5-24-48.2-34.8-2.5 10.7-4.2 21.6-5 32.7 27.2 8.8 50.4 9.9 53.2 2.1z"/><path id="XMLID_3296_" d="m501.5 245.7c-29.7 10.8-51.3 26.4-48.2 34.8 2.9 7.8 26.1 6.7 53.2-2.2-.8-11-2.5-21.9-5-32.6z"/><path id="XMLID_3295_" d="m453.3 333.4c-2.8 7.7 15 21.4 40.8 31.9 3.7-10 6.7-20.3 8.8-30.9-25.6-7.8-46.9-8.5-49.6-1z"/></g><path id="XMLID_3294_" d="m264.2 465h-16.3c-33.3 0-66.3-5.4-97.8-15.9v42c31.5 10.5 64.6 15.9 97.8 15.9h16.3c33.3 0 66.3-5.4 97.8-15.9v-42c-31.5 10.5-64.6 15.9-97.8 15.9z" fill="#d7d5c1"/><path id="XMLID_3293_" d="m170.8 75.1c.6 1.8 1.2 3.7 1.9 5.5 10.8 29.7 26.4 51.2 34.8 48.2 7.9-2.9 6.7-26.4-2.4-53.7h-26.9c-2.4-.1-4.9-.1-7.4 0z" fill="#e36414"/><path id="XMLID_3292_" d="m256 145c13.8 0 25-31.3 25-70h-5.2-19.8-19.8-5.2c0 38.7 11.2 70 25 70z" fill="#e36414"/><path id="XMLID_1556_" d="m333.7 75h-26.9c-9.1 27.4-10.3 50.9-2.4 53.7 8.4 3.1 24-18.5 34.8-48.2.7-1.8 1.3-3.7 1.9-5.5-2.4 0-4.9 0-7.4 0z" fill="#e36414"/><path id="XMLID_1555_" d="m56.6 156.3c10.7-12.2 22.6-23.2 35.4-32.8l-87-28.5 48.1 65.4c1.1-1.4 2.3-2.8 3.5-4.1z" fill="#ebeae0"/><path id="XMLID_1554_" d="m420 123.4c12.8 9.7 24.6 20.6 35.4 32.8 1.2 1.4 2.4 2.7 3.5 4.1l48.1-65.3z" fill="#ebeae0"/><g id="XMLID_1539_"><path id="XMLID_1545_" d="m251 260h10v78h-10z" fill="#b24e10"/></g><path id="XMLID_1538_" d="m261.9 240h-11.7c-7.8 0-14.1 6.3-14.1 14.1 0 3.8 1.5 7.3 4.1 10l15.8 15.9 15.9-15.9c2.7-2.7 4.1-6.2 4.1-10 0-7.8-6.3-14.1-14.1-14.1z" fill="#e36414"/><circle id="XMLID_2118_" cx="352" cy="240" fill="#1f3e75" r="65"/><path id="XMLID_3440_" d="m416 228.7c-3.8 21.6-18.5 41.7-44.4 51.2-12.6 4.7-26.6 4.7-39.3 0-25.8-9.5-40.6-29.6-44.4-51.2-5.1 28.8 9.3 60.3 43.2 73.4 13.4 5.2 28.2 5.2 41.6 0 34-13.1 48.4-44.6 43.3-73.4z" fill="#d7d5c1"/><circle id="XMLID_3439_" cx="160" cy="240" fill="#1f3e75" r="65"/><path id="XMLID_3438_" d="m224 228.7c-3.8 21.6-18.5 41.7-44.4 51.2-12.6 4.7-26.6 4.7-39.3 0-25.8-9.5-40.6-29.6-44.4-51.2-5.1 28.8 9.3 60.3 43.2 73.4 13.4 5.2 28.2 5.2 41.6 0 34-13.1 48.4-44.6 43.3-73.4z" fill="#d7d5c1"/><circle id="XMLID_2122_" cx="160" cy="240" fill="#14294d" r="30"/><circle id="XMLID_2121_" cx="135" cy="215" fill="#f5f5f0" r="15"/><circle id="XMLID_2120_" cx="352" cy="240" fill="#14294d" r="30"/><circle id="XMLID_2119_" cx="327" cy="215" fill="#f5f5f0" r="15"/><circle id="XMLID_631_" cx="382" cy="215" fill="#d7d5c1" r="12"/><circle id="XMLID_642_" cx="190" cy="215" fill="#d7d5c1" r="12"/><path id="XMLID_2116_" d="m278.3 338.3-22.3-18.3-22.3 18.3c-7.3 6-3.1 17.7 6.3 17.7h32c9.4 0 13.6-11.8 6.3-17.7z" fill="#db3429"/><g id="XMLID_2115_"><path id="XMLID_3306_" d="m43 303.4h10v41.2h-10z" fill="#b24e10" transform="matrix(.243 .97 -.97 .243 350.679 198.837)"/></g><g id="XMLID_2114_"><path id="XMLID_3305_" d="m27.4 289h41.2v10h-41.2z" fill="#b24e10" transform="matrix(.97 .243 -.243 .97 72.739 -2.864)"/></g><g id="XMLID_2113_"><path id="XMLID_3304_" d="m459 273.4h10v41.2h-10z" fill="#b24e10" transform="matrix(.243 .97 -.97 .243 636.661 -227.46)"/></g><g id="XMLID_2112_"><path id="XMLID_3303_" d="m443.4 319h41.2v10h-41.2z" fill="#b24e10" transform="matrix(.97 .243 -.243 .97 92.435 -102.863)"/></g><g id="XMLID_2111_"><path id="XMLID_3302_" d="m140 160v-10c11.6 0 22.4-4.5 30.6-12.7l5.9-5.9 7.1 7.1-5.9 5.9c-10.1 10.1-23.5 15.6-37.7 15.6z" fill="#b24e10"/></g><g id="XMLID_2110_"><path id="XMLID_2124_" d="m372 160c-14.2 0-27.6-5.5-37.7-15.6l-5.9-5.9 7.1-7.1 5.9 5.9c8.2 8.2 19 12.7 30.6 12.7z" fill="#b24e10"/></g><circle id="XMLID_640_" cx="362" cy="250" fill="#d7d5c1" r="10"/><circle id="XMLID_632_" cx="170" cy="250" fill="#d7d5c1" r="10"/></g></g></svg>