<svg height="512" viewBox="0 0 512 512" width="512" xmlns="http://www.w3.org/2000/svg" xmlns:xlink="http://www.w3.org/1999/xlink" isolation="isolate"><radialGradient id="_rgradient_48" cx=".5" cy=".5" gradientTransform="matrix(1280 5.89 185.031 1707.08 -441.515 -701.43)" gradientUnits="userSpaceOnUse" r=".5"><stop offset=".01304347826" stop-color="#974f2d"/><stop offset=".97391304348" stop-color="#532009"/></radialGradient><radialGradient id="_rgradient_49" cx=".5" cy=".5" gradientTransform="matrix(1262 -17.559 6 943.559 -364 -329.22)" gradientUnits="userSpaceOnUse" r=".5"><stop offset=".01304347826" stop-color="#ffcebb"/><stop offset=".89705293782" stop-color="#bb7c66"/></radialGradient><radialGradient id="_rgradient_50" cx=".5" cy=".5" fx=".451" fy=".568" gradientTransform="matrix(-530.632 -22.865 -28.164 -358.725 571.785 602.05)" gradientUnits="userSpaceOnUse" r=".5"><stop offset=".02608695652" stop-color="#53250f"/><stop offset=".56956521739" stop-color="#37190b"/><stop offset=".72608695652" stop-color="#3e1c0c"/></radialGradient><radialGradient id="_rgradient_51" cx=".5" cy=".5" fx=".517" fy=".494" gradientTransform="matrix(-414.5 -18 -22 -282.403 499.75 467.451)" gradientUnits="userSpaceOnUse" r=".5"><stop offset=".01739130435" stop-color="#572a15"/><stop offset=".56956521739" stop-color="#37190b"/></radialGradient><linearGradient id="lg1"><stop offset=".01304347826" stop-color="#ffdd78"/><stop offset="1" stop-color="#ffce39"/></linearGradient><radialGradient id="_rgradient_52" cx=".5" cy=".5" gradientTransform="matrix(-131.876 47.751 45.414 125.422 221.884 135.15)" gradientUnits="userSpaceOnUse" r=".5" xlink:href="#lg1"/><radialGradient id="_rgradient_53" cx=".5" cy=".5" gradientTransform="matrix(131.876 47.751 -45.414 125.422 290.116 135.15)" gradientUnits="userSpaceOnUse" r=".5" xlink:href="#lg1"/><path d="m408.944 138.234c14.22 17.175 25.455 36.136 31.805 55.096l35.409 105.719c31.312 93.49-14.572 183.192-102.4 200.191-64.992 12.58-170.524 12.58-235.516 0-87.828-16.999-133.712-106.701-102.4-200.191l35.409-105.719c6.338-18.926 17.544-37.852 31.728-55.002-5.97-1.213-11.969-2.9-17.871-5.068l-9.832-3.613c-39.793-14.624-53.292-55.322-30.124-90.827l3.905-5.985c23.167-35.505 65.855-39.542 95.267-9.008l7.267 7.544c13.876 14.405 23.683 31.674 28.295 47.91 7.03-2.98 14.08-5.329 21.05-6.969 30.391-7.151 79.737-7.151 110.128 0 6.813 1.603 13.703 3.884 20.576 6.773 4.635-16.179 14.419-33.367 28.239-47.714l7.267-7.544c29.412-30.534 72.1-26.497 95.267 9.008l3.905 5.985c23.167 35.505 9.669 76.203-30.124 90.827l-9.832 3.613c-5.753 2.114-11.597 3.77-17.418 4.974z" fill="url(#_rgradient_48)"/><path d="m230.156 333.844c13.712.377 35.976.377 49.688 0 45.762-1.261 98.929 26.315 118.652 61.542 29.256 52.253-7.593 101.692-82.237 110.334-33.81 3.914-88.708 3.914-122.518 0-74.644-8.642-111.493-58.081-82.237-110.334 19.723-35.227 72.89-62.803 118.652-61.542zm-78.389-239.4c2.854-13.111-4.228-32.327-18.119-46.748l-4.351-4.517c-17.611-18.282-43.17-15.865-57.041 5.393l-2.338 3.583c-13.871 21.259-5.789 45.627 18.037 54.382l5.887 2.164c11.68 4.292 23.997 5.431 34.248 3.778 7.556-6.621 15.502-12.693 23.677-18.035zm207.936 0c-2.854-13.111 4.228-32.327 18.119-46.748l4.351-4.517c17.61-18.282 43.169-15.865 57.041 5.393l2.338 3.583c13.871 21.259 5.789 45.627-18.037 54.382l-5.887 2.164c-11.681 4.292-23.998 5.431-34.249 3.778-7.555-6.621-15.502-12.693-23.676-18.035z" fill="url(#_rgradient_49)" fill-rule="evenodd"/><path d="m338.221 388.169c-43.589 11.937-114.008 12.676-157.155 1.65-10.693-2.733-17.022 5.393-14.126 18.134q15.33 67.438 92.302 67.438 76.973 0 93.178-69.525c2.966-12.725-3.396-20.655-14.199-17.697z" fill="url(#_rgradient_50)"/><path d="m277.305 364.886-9.108 1.221c-6.732.902-17.662.902-24.394 0l-9.108-1.221c-11.423-1.531-25.441-10.839-31.283-20.773l-5.1-8.671c-10.433-17.74-2.295-33.974 18.162-36.229l12.097-1.333c15.139-1.669 39.719-1.669 54.858 0l12.097 1.333c20.457 2.255 28.595 18.489 18.162 36.229l-5.1 8.671c-5.842 9.934-19.86 19.242-31.283 20.773z" fill="url(#_rgradient_51)"/><g><path d="m162.587 299.582 18.43-24.21c3.535-4.642 11.021-7.353 16.709-6.049l29.657 6.797c5.687 1.304 7.607-1.531 4.283-6.327l-17.329-25.009c-3.324-4.796-3.588-12.754-.591-17.76l15.63-26.106c2.997-5.006.894-7.707-4.694-6.029l-29.141 8.754c-5.588 1.678-13.238-.529-17.073-4.927l-19.998-22.932c-3.835-4.397-7.054-3.232-7.184 2.602l-.68 30.419c-.131 5.833-4.594 12.427-9.961 14.715l-27.99 11.933c-5.367 2.288-5.253 5.71.254 7.637l28.72 10.046c5.508 1.927 10.4 8.209 10.917 14.021l2.7 30.307c.518 5.812 3.807 6.761 7.341 2.118z" fill="url(#_rgradient_52)"/></g><g><path d="m349.413 299.582-18.43-24.21c-3.535-4.642-11.021-7.353-16.709-6.049l-29.657 6.797c-5.687 1.304-7.607-1.531-4.283-6.327l17.329-25.009c3.324-4.796 3.588-12.754.591-17.76l-15.63-26.106c-2.997-5.006-.894-7.707 4.694-6.029l29.141 8.754c5.588 1.678 13.238-.529 17.073-4.927l19.998-22.932c3.835-4.397 7.054-3.232 7.184 2.602l.68 30.419c.131 5.833 4.594 12.427 9.961 14.715l27.99 11.933c5.367 2.288 5.253 5.71-.254 7.637l-28.72 10.046c-5.508 1.927-10.4 8.209-10.917 14.021l-2.7 30.307c-.518 5.812-3.807 6.761-7.341 2.118z" fill="url(#_rgradient_53)"/></g></svg>