<svg id="Layer_1" enable-background="new 0 0 512 512" height="512" viewBox="0 0 512 512" width="512" xmlns="http://www.w3.org/2000/svg" xmlns:xlink="http://www.w3.org/1999/xlink"><radialGradient id="XMLID_3_" cx="257" cy="182" gradientUnits="userSpaceOnUse" r="251"><stop offset=".7366" stop-color="#ffc970"/><stop offset="1" stop-color="#ffb233"/></radialGradient><linearGradient id="lg1"><stop offset=".4835" stop-color="#ebeae0"/><stop offset="1" stop-color="#d7d5c1"/></linearGradient><linearGradient id="XMLID_4_" gradientUnits="userSpaceOnUse" x1="256" x2="256" xlink:href="#lg1" y1="318.5" y2="497.101"/><linearGradient id="XMLID_5_" gradientUnits="userSpaceOnUse" x1="1.084" x2="75.98" xlink:href="#lg1" y1="54.366" y2="129.263"/><linearGradient id="XMLID_6_" gradientTransform="matrix(-1 0 0 1 1812 0)" gradientUnits="userSpaceOnUse" x1="1301.084" x2="1375.98" xlink:href="#lg1" y1="54.366" y2="129.263"/><linearGradient id="XMLID_7_" gradientUnits="userSpaceOnUse" x1="266.347" x2="191.758" y1="417.653" y2="492.242"><stop offset=".4835" stop-color="#ee803a"/><stop offset="1" stop-color="#e36414"/></linearGradient><g id="XMLID_1_"><g id="XMLID_5044_"><path id="XMLID_3780_" d="m507 5-16.7 10.1c-64.7 39.2-138.9 59.9-214.5 59.9h-39.6c-75.6 0-149.8-20.7-214.5-59.9l-16.7-10.1c0 52.7 15.2 104.2 43.8 148.4l4.4 6.8c-31.1 37.3-48.2 84.3-48.2 133 0 86.5 53.7 163.9 134.7 194.3 34.6 12.9 71.2 19.6 108.1 19.6h16.3c36.9 0 73.6-6.6 108.1-19.6 81-30.3 134.7-107.7 134.7-194.3 0-48.6-17.1-95.7-48.2-132.9l4.4-6.8c28.7-44.3 43.9-95.8 43.9-148.5z" fill="url(#XMLID_3_)"/><path id="XMLID_3775_" d="m256 240c-12.4 0-23.9 6.5-30.2 17.2l-8.4 14.1c-6.5 11-18.4 17.7-31.1 17.7-20 0-36.2 16.2-36.2 36.2v165.8c31.5 10.5 64.6 15.9 97.8 15.9h16.3c33.3 0 66.3-5.4 97.8-15.9v-165.8c0-20-16.2-36.2-36.2-36.2-12.8 0-24.6-6.7-31.1-17.7l-8.4-14.1c-6.4-10.7-17.9-17.2-30.3-17.2z" fill="url(#XMLID_4_)"/><path id="XMLID_3766_" d="m53.2 160.2c1.1-1.3 2.2-2.7 3.4-4 15.9-18.1 34.2-33.5 54.3-45.8-42.2-27.2-78.3-63.1-105.9-105.4 0 52.7 15.2 104.2 43.8 148.4z" fill="url(#XMLID_5_)"/><path id="XMLID_3765_" d="m458.8 160.2c-1.1-1.3-2.2-2.7-3.4-4-15.9-18.1-34.2-33.5-54.3-45.8 42.2-27.2 78.3-63.1 105.9-105.4 0 52.7-15.2 104.2-43.8 148.4z" fill="url(#XMLID_6_)"/><g fill="#e36414"><path id="XMLID_3900_" d="m9.2 334.5c2.1 10.6 5.1 20.9 8.8 30.9 25.8-10.5 43.6-24.2 40.8-31.9-2.8-7.6-24.1-6.9-49.6 1z"/><path id="XMLID_3899_" d="m58.7 280.6c3.1-8.4-18.5-24-48.2-34.8-2.5 10.7-4.2 21.6-5 32.7 27.2 8.8 50.4 9.9 53.2 2.1z"/><path id="XMLID_3898_" d="m501.5 245.7c-29.7 10.8-51.3 26.4-48.2 34.8 2.9 7.8 26.1 6.7 53.2-2.2-.8-11-2.5-21.9-5-32.6z"/><path id="XMLID_3897_" d="m453.3 333.4c-2.8 7.7 15 21.4 40.8 31.9 3.7-10 6.7-20.3 8.8-30.9-25.6-7.8-46.9-8.5-49.6-1z"/></g><g id="XMLID_3894_"><path id="XMLID_3895_" d="m251 260h10v60h-10z" fill="#b24e10"/></g><g id="XMLID_3892_"><path id="XMLID_3893_" d="m103 303.4h10v41.2h-10z" fill="#b24e10" transform="matrix(.243 .97 -.97 .243 396.124 140.63)"/></g><g id="XMLID_3890_"><path id="XMLID_3891_" d="m87.4 289h41.2v10h-41.2z" fill="#b24e10" transform="matrix(.97 .243 -.243 .97 74.53 -17.416)"/></g><g id="XMLID_3888_"><path id="XMLID_3889_" d="m399 273.4h10v41.2h-10z" fill="#b24e10" transform="matrix(.243 .97 -.97 .243 591.216 -169.252)"/></g><g id="XMLID_3886_"><path id="XMLID_3887_" d="m383.4 319h41.2v10h-41.2z" fill="#b24e10" transform="matrix(.97 .243 -.243 .97 90.644 -88.311)"/></g><path id="XMLID_3885_" d="m261.9 240h-11.7c-7.8 0-14.1 6.3-14.1 14.1 0 3.8 1.5 7.3 4.1 10l15.8 15.9 15.9-15.9c2.7-2.7 4.1-6.2 4.1-10 0-7.8-6.3-14.1-14.1-14.1z" fill="#e36414"/><path id="XMLID_3884_" d="m172.7 80.6c10.8 29.7 26.4 51.2 34.8 48.2 8-2.9 6.7-27.1-2.8-54.9-12-.9-23.9-2.3-35.7-4.3 1.2 3.5 2.4 7.2 3.7 11z" fill="#e36414"/><path id="XMLID_3883_" d="m275.8 75h-39.6c-1.7 0-3.2 0-5.2 0 0 38.7 11.2 70 25 70s25-31.3 25-70c-1.7 0-3.5 0-5.2 0z" fill="#e36414"/><path id="XMLID_3882_" d="m307.2 73.8c-9.4 27.9-10.8 52-2.8 54.9 8.4 3.1 24-18.5 34.8-48.2 1.4-3.7 2.6-7.4 3.7-11-11.8 2-23.7 3.4-35.7 4.3z" fill="#e36414"/><g id="XMLID_3878_"><path id="XMLID_3879_" d="m182 220h20v40h-20z" fill="#1f3e75"/></g><g id="XMLID_3876_"><path id="XMLID_3877_" d="m310 220h20v40h-20z" fill="#1f3e75"/></g><g id="XMLID_2082_"><path id="XMLID_2083_" d="m345 200h-10c0-8.3-6.7-15-15-15s-15 6.7-15 15h-10c0-13.8 11.2-25 25-25s25 11.2 25 25z" fill="#b24e10"/></g><g id="XMLID_2076_"><path id="XMLID_2077_" d="m172 205v-10c11.6 0 22.4-4.5 30.6-12.7l5.9-5.9 7.1 7.1-5.9 5.9c-10.1 10.1-23.5 15.6-37.7 15.6z" fill="#b24e10"/></g><g id="XMLID_2074_"><path id="XMLID_2075_" d="m212 315h88v10h-88z" fill="#b24e10"/></g><path id="XMLID_2073_" d="m247.7 507 77.5-77.5c19.5-19.5 19.5-51.2 0-70.7-19.5-19.5-51.2-19.5-70.7 0l-148.2 148.2z" fill="url(#XMLID_7_)"/><path id="XMLID_2068_" d="m321 133h100c22.1 0 40-17.9 40-40v-48c0-22.1-17.9-40-40-40h-100c-22.1 0-40 17.9-40 40v48c0 22.1 17.9 40 40 40z" fill="#f5f5f0"/><circle id="XMLID_2067_" cx="405" cy="173" fill="#f5f5f0" r="20"/><circle id="XMLID_2066_" cx="390" cy="228" fill="#f5f5f0" r="15"/><g id="XMLID_2061_"><path id="XMLID_2062_" d="m421 74h-20v-10h20zm-40 0h-20v-10h20zm-40 0h-20v-10h20z" fill="#1f3e75"/></g><path id="XMLID_1432_" d="m274.3 378.6 7.1 7.1 34.3-34.3c-3.1-1.9-6.3-3.4-9.6-4.5z" fill="#e36414"/><path id="XMLID_1431_" d="m332.6 368.4-34.3 34.3 7.1 7.1 31.8-31.8c-1.2-3.3-2.7-6.6-4.6-9.6z" fill="#e36414"/></g></g></svg>