<svg height="512" viewBox="0 0 64 64" width="512" xmlns="http://www.w3.org/2000/svg" xmlns:xlink="http://www.w3.org/1999/xlink"><linearGradient id="linear-gradient" gradientTransform="matrix(.707 -.707 .707 .707 -13.255 32)" gradientUnits="userSpaceOnUse" x1="32" x2="32" y1="2.15" y2="62.441"><stop offset="0" stop-color="#ffe100"/><stop offset="1" stop-color="#f98900"/></linearGradient><linearGradient id="linear-gradient-2" gradientTransform="matrix(.707 -.707 .707 .707 -13.255 32)" gradientUnits="userSpaceOnUse" x1="53.14" x2="38.425" y1="23.207" y2="20.527"><stop offset="0" stop-color="#803f02"/><stop offset=".174" stop-color="#6d3602"/><stop offset=".515" stop-color="#4d2601"/><stop offset=".802" stop-color="#3a1c01"/><stop offset="1" stop-color="#331901"/></linearGradient><linearGradient id="linear-gradient-3" gradientTransform="matrix(-.707 .707 .707 .707 19.979 -1.234)" x1="36.14" x2="21.425" xlink:href="#linear-gradient-2" y1="23.207" y2="20.527"/><linearGradient id="linear-gradient-4" gradientTransform="matrix(.707 -.707 .707 .707 -13.255 32)" gradientUnits="userSpaceOnUse" x1="12.551" x2="51.449" y1="36.376" y2="36.376"><stop offset="0" stop-color="#b8b4b2"/><stop offset=".143" stop-color="#d0ccc9"/><stop offset=".374" stop-color="#f2edea"/><stop offset=".5" stop-color="#fffaf6"/><stop offset=".638" stop-color="#f9f5f1"/><stop offset=".825" stop-color="#e8e5e3"/><stop offset="1" stop-color="#d1d1d1"/></linearGradient><linearGradient id="linear-gradient-5" gradientTransform="matrix(.707 -.707 .707 .707 -13.255 32)" gradientUnits="userSpaceOnUse" x1="32" x2="32" y1="54.147" y2="36.059"><stop offset="0" stop-color="#69101b"/><stop offset=".345" stop-color="#5f0f18"/><stop offset=".934" stop-color="#430b11"/><stop offset="1" stop-color="#400a10"/></linearGradient><linearGradient id="linear-gradient-6" gradientTransform="matrix(.707 -.707 .707 .707 -13.255 32)" gradientUnits="userSpaceOnUse" x1="32" x2="32" y1="31.21" y2="40.465"><stop offset="0" stop-color="#ababab" stop-opacity=".5"/><stop offset=".541" stop-color="#c1c1c1" stop-opacity=".216"/><stop offset="1" stop-color="#d1d1d1" stop-opacity="0"/></linearGradient><linearGradient id="linear-gradient-7" gradientTransform="matrix(.707 -.707 .707 .707 -13.255 32)" gradientUnits="userSpaceOnUse" x1="13.284" x2="3.185" y1="27.146" y2="37.61"><stop offset=".005" stop-color="#72e9ff"/><stop offset=".402" stop-color="#53cdff"/><stop offset="1" stop-color="#29a6ff"/></linearGradient><linearGradient id="linear-gradient-8" gradientTransform="matrix(.707 -.707 .707 .707 -13.255 32)" gradientUnits="userSpaceOnUse" x1="12.22" x2="7.407" y1="28.336" y2="33.323"><stop offset="0" stop-color="#ccedff"/><stop offset=".142" stop-color="#c1e9ff"/><stop offset=".394" stop-color="#a3dfff"/><stop offset=".724" stop-color="#73cfff"/><stop offset="1" stop-color="#45bfff"/></linearGradient><linearGradient id="linear-gradient-9" gradientTransform="matrix(.707 -.707 .707 .707 -13.255 32)" gradientUnits="userSpaceOnUse" x1="2.827" x2="8.661" y1="34.917" y2="34.917"><stop offset=".005" stop-color="#87e3ff"/><stop offset=".096" stop-color="#79dbff"/><stop offset=".342" stop-color="#59c7fd"/><stop offset=".58" stop-color="#43b9fd"/><stop offset=".804" stop-color="#35b1fc"/><stop offset="1" stop-color="#30aefc"/></linearGradient><linearGradient id="linear-gradient-10" gradientTransform="matrix(-.707 .707 .707 .707 64.527 -45.782)" x1="59.284" x2="49.185" xlink:href="#linear-gradient-7" y1="27.146" y2="37.61"/><linearGradient id="linear-gradient-11" gradientTransform="matrix(-.707 .707 .707 .707 64.527 -45.782)" x1="58.22" x2="53.407" xlink:href="#linear-gradient-8" y1="28.336" y2="33.323"/><linearGradient id="linear-gradient-12" gradientTransform="matrix(-.707 .707 .707 .707 64.527 -45.782)" x1="48.827" x2="54.661" xlink:href="#linear-gradient-9" y1="34.917" y2="34.917"/><linearGradient id="linear-gradient-13" gradientTransform="matrix(.997 .079 -.079 .997 -15.154 -7.93)" gradientUnits="userSpaceOnUse" x1="39.99" x2="54.952" y1="12.491" y2="12.491"><stop offset=".005" stop-color="#414d4d"/><stop offset=".206" stop-color="#3a4545"/><stop offset=".522" stop-color="#272e2e"/><stop offset=".914" stop-color="#080909"/><stop offset="1"/></linearGradient><linearGradient id="linear-gradient-14" gradientTransform="matrix(.079 .997 .997 -.079 -28.436 5.352)" x1="21.169" x2="36.131" xlink:href="#linear-gradient-13" y1="34.554" y2="34.554"/><g id="_11-Rolling_on_the_Floor_Laughing" data-name="11-Rolling on the Floor Laughing"><path d="m53.316 53.316c-19.045 19.046-37.845 4.84-41.944.684l-1.372-1.372c-4.152-4.1-18.358-22.9.688-41.944 19.041-19.046 37.841-4.84 41.94-.684l1.372 1.372c4.156 4.099 18.362 22.899-.684 41.944z" fill="url(#linear-gradient)"/><path d="m40.251 8.621s-1.945-.571-6.742 2.884a14.31 14.31 0 0 0 -5.267 7.195 1.684 1.684 0 0 0 .413 1.706 1.486 1.486 0 0 0 .388.266 1.669 1.669 0 0 0 .3.421 1.984 1.984 0 0 0 2.657-.093 25.8 25.8 0 0 1 8.251-5.5 14.194 14.194 0 0 0 -7.557 1.337 30.473 30.473 0 0 1 7.557-8.216z" fill="#f99c06"/><path d="m40.251 8.621s-1.945-.57-6.742 2.884a14.31 14.31 0 0 0 -5.267 7.195 1.684 1.684 0 0 0 .413 1.706 1.985 1.985 0 0 0 2.657-.094 19.367 19.367 0 0 1 8.939-4.812 14.929 14.929 0 0 0 -8.939 2.063s1.409-4.095 8.939-8.942z" fill="url(#linear-gradient-2)"/><path d="m8.621 40.251s-.571-1.945 2.884-6.742a14.31 14.31 0 0 1 7.195-5.267 1.684 1.684 0 0 1 1.706.413 1.486 1.486 0 0 1 .266.388 1.669 1.669 0 0 1 .421.3 1.984 1.984 0 0 1 -.093 2.657 25.8 25.8 0 0 0 -5.5 8.251 14.194 14.194 0 0 1 1.337-7.557 30.473 30.473 0 0 0 -8.216 7.557z" fill="#f99c06"/><path d="m8.621 40.251s-.57-1.945 2.884-6.742a14.31 14.31 0 0 1 7.195-5.267 1.684 1.684 0 0 1 1.706.413 1.985 1.985 0 0 1 -.094 2.657 19.367 19.367 0 0 0 -4.812 8.939 14.929 14.929 0 0 1 2.063-8.939s-4.095 1.409-8.942 8.939z" fill="url(#linear-gradient-3)"/><path d="m48.731 21.238a1.953 1.953 0 0 0 -2.167-.584c-2.427.873-8.072 3.479-15.252 10.658s-9.785 12.825-10.658 15.252a1.953 1.953 0 0 0 .584 2.167c.087.071.19.152.287.23a1.927 1.927 0 0 0 .4.457 25.811 25.811 0 0 0 2.64 1.912c3.349 2.1 8.712 4.38 14.736 2.784a20.352 20.352 0 0 0 9.199-5.614 20.454 20.454 0 0 0 5.618-9.194l-.007-.007c1.6-6.024-.687-11.387-2.784-14.736a25.811 25.811 0 0 0 -1.912-2.64 1.927 1.927 0 0 0 -.457-.4c-.075-.095-.158-.198-.227-.285z" fill="#f9bf06"/><path d="m48.043 20.55a1.955 1.955 0 0 0 -2.166-.584c-2.428.873-8.073 3.48-15.252 10.659s-9.786 12.824-10.659 15.252a1.955 1.955 0 0 0 .584 2.166c.087.071.191.153.287.23a1.912 1.912 0 0 0 .4.458 26.211 26.211 0 0 0 2.64 1.911c3.349 2.1 8.713 4.38 14.737 2.785a20.358 20.358 0 0 0 9.2-5.612 20.457 20.457 0 0 0 5.619-9.194l-.007-.006c1.595-6.024-.688-11.388-2.785-14.737a26.211 26.211 0 0 0 -1.911-2.64 1.912 1.912 0 0 0 -.458-.4c-.072-.097-.158-.201-.229-.288z" fill="#ed8d06"/><path d="m46.564 20.654a1.953 1.953 0 0 1 2.167.584 26.126 26.126 0 0 1 1.911 2.641 7.3 7.3 0 0 1 -2.139 5.37 4.262 4.262 0 0 0 -1.375-2.749c-1.375-1.375-8.252 4.127-12.378 8.252s-9.627 11-8.252 12.378a4.262 4.262 0 0 0 2.751 1.37 7.3 7.3 0 0 1 -5.37 2.139 26.126 26.126 0 0 1 -2.641-1.911 1.953 1.953 0 0 1 -.584-2.167c.873-2.427 3.479-8.072 10.658-15.252s12.825-9.782 15.252-10.655z" fill="url(#linear-gradient-4)"/><path d="m53.427 38.615.007.006a20.457 20.457 0 0 1 -5.619 9.194 20.358 20.358 0 0 1 -9.2 5.612c-.482-1.362-.984-5.054 4.385-10.427s9.065-4.867 10.427-4.385z" fill="#8f030e"/><path d="m48.5 29.249a7.3 7.3 0 0 0 2.139-5.37c2.1 3.348 4.38 8.712 2.785 14.736-1.359-.482-5.051-.984-10.424 4.385s-4.869 9.063-4.387 10.425c-6.024 1.595-11.388-.688-14.736-2.785a7.3 7.3 0 0 0 5.37-2.139 4.262 4.262 0 0 1 -2.747-1.373c-1.375-1.375 4.127-8.252 8.252-12.378s11-9.627 12.378-8.252a4.262 4.262 0 0 1 1.37 2.751z" fill="url(#linear-gradient-5)"/><path d="m46.564 20.654a1.953 1.953 0 0 1 2.167.584 26.126 26.126 0 0 1 1.911 2.641 7.3 7.3 0 0 1 -2.139 5.37 4.262 4.262 0 0 0 -1.375-2.749c-1.375-1.375-8.252 4.127-12.378 8.252s-9.627 11-8.252 12.378a4.262 4.262 0 0 0 2.751 1.37 7.3 7.3 0 0 1 -5.37 2.139 26.126 26.126 0 0 1 -2.641-1.911 1.953 1.953 0 0 1 -.584-2.167c.873-2.427 3.479-8.072 10.658-15.252s12.825-9.782 15.252-10.655z" fill="url(#linear-gradient-6)"/><path d="m15.5 41.627s5.039 6.579 5.046 9.363a5.046 5.046 0 1 1 -10.092 0c.004-2.784 5.046-9.363 5.046-9.363z" fill="url(#linear-gradient-7)"/><path d="m14.882 43.635a.749.749 0 0 1 1.231 0c.765 1.1 1.971 2.98 1.973 3.955a2.589 2.589 0 0 1 -5.178 0c.002-.975 1.209-2.859 1.974-3.955z" fill="url(#linear-gradient-8)"/><path d="m12.085 51.915a4.245 4.245 0 0 0 3.415 2.275 4.249 4.249 0 0 0 3.413-2.274 3.413 3.413 0 0 1 -6.825 0z" fill="url(#linear-gradient-9)"/><path d="m41.627 15.5s6.579 5.039 9.363 5.046a5.046 5.046 0 1 0 0-10.092c-2.784.004-9.363 5.046-9.363 5.046z" fill="url(#linear-gradient-10)"/><path d="m43.635 14.882a.749.749 0 0 0 0 1.231c1.1.765 2.98 1.971 3.955 1.973a2.589 2.589 0 0 0 0-5.178c-.975.002-2.859 1.209-3.955 1.974z" fill="url(#linear-gradient-11)"/><path d="m51.915 12.085a4.245 4.245 0 0 1 2.275 3.415 4.249 4.249 0 0 1 -2.274 3.413 3.413 3.413 0 0 0 0-6.825z" fill="url(#linear-gradient-12)"/><path d="m21.918 52.366c-.007-2.785-6.418-10.739-6.418-10.739s5.039 6.579 5.046 9.363a5.048 5.048 0 0 1 -7.861 4.19c.025.038.058.069.085.106.642.547 1.409 1.151 2.3 1.779a5.021 5.021 0 0 0 6.855-4.7z" fill="#ed8d06"/><path d="m55.18 12.682a5.048 5.048 0 0 1 -4.19 7.861c-2.784-.006-9.363-5.046-9.363-5.046s7.954 6.415 10.738 6.422a5.021 5.021 0 0 0 4.7-6.855c-.627-.888-1.232-1.655-1.779-2.3-.038-.023-.069-.056-.106-.082z" fill="#ed8d06"/><path d="m23.454 11.077s3.5-8.506 15.422-5.207a29.243 29.243 0 0 0 -15.422 5.207z" fill="url(#linear-gradient-13)"/><path d="m11.077 23.454s-8.506 3.5-5.207 15.422a29.243 29.243 0 0 1 5.207-15.422z" fill="url(#linear-gradient-14)"/></g></svg>